<svg xmlns="http://www.w3.org/2000/svg" xmlns:xlink="http://www.w3.org/1999/xlink" width="500" zoomAndPan="magnify" viewBox="0 0 375 374.999991" height="500" preserveAspectRatio="xMidYMid meet" version="1.0"><defs><clipPath id="id1"><path d="M 60.289062 127 L 131 127 L 131 198 L 60.289062 198 Z M 60.289062 127 " clip-rule="nonzero"/></clipPath><clipPath id="id2"><path d="M 60.289062 183 L 131 183 L 131 255 L 60.289062 255 Z M 60.289062 183 " clip-rule="nonzero"/></clipPath><clipPath id="id3"><path d="M 60.289062 240 L 131 240 L 131 310.695312 L 60.289062 310.695312 Z M 60.289062 240 " clip-rule="nonzero"/></clipPath><clipPath id="id4"><path d="M 116 240 L 188 240 L 188 310.695312 L 116 310.695312 Z M 116 240 " clip-rule="nonzero"/></clipPath><clipPath id="id5"><path d="M 173 240 L 244 240 L 244 310.695312 L 173 310.695312 Z M 173 240 " clip-rule="nonzero"/></clipPath><clipPath id="id6"><path d="M 250 63.945312 L 314.539062 63.945312 L 314.539062 128 L 250 128 Z M 250 63.945312 " clip-rule="nonzero"/></clipPath></defs><path fill="rgb(65.098572%, 65.098572%, 65.098572%)" d="M 187.652344 7.277344 C 88.035156 7.277344 7.277344 88.035156 7.277344 187.652344 C 7.277344 287.273438 88.035156 368.027344 187.652344 368.027344 C 287.273438 368.027344 368.027344 287.273438 368.027344 187.652344 C 368.027344 88.035156 287.273438 7.277344 187.652344 7.277344 " fill-opacity="1" fill-rule="nonzero"/><path fill="rgb(85.099792%, 85.099792%, 85.099792%)" d="M 67.472656 134.445312 L 123.914062 134.445312 L 123.914062 190.847656 L 67.472656 190.847656 Z M 67.472656 134.445312 " fill-opacity="1" fill-rule="nonzero"/><path fill="rgb(85.099792%, 85.099792%, 85.099792%)" d="M 67.472656 190.847656 L 123.914062 190.847656 L 123.914062 247.246094 L 67.472656 247.246094 Z M 67.472656 190.847656 " fill-opacity="1" fill-rule="nonzero"/><path fill="rgb(85.099792%, 85.099792%, 85.099792%)" d="M 123.914062 190.847656 L 180.359375 190.847656 L 180.359375 247.246094 L 123.914062 247.246094 Z M 123.914062 190.847656 " fill-opacity="1" fill-rule="nonzero"/><path fill="rgb(85.099792%, 85.099792%, 85.099792%)" d="M 67.472656 247.246094 L 123.914062 247.246094 L 123.914062 303.644531 L 67.472656 303.644531 Z M 67.472656 247.246094 " fill-opacity="1" fill-rule="nonzero"/><path fill="rgb(85.099792%, 85.099792%, 85.099792%)" d="M 123.914062 247.246094 L 180.359375 247.246094 L 180.359375 303.644531 L 123.914062 303.644531 Z M 123.914062 247.246094 " fill-opacity="1" fill-rule="nonzero"/><path fill="rgb(85.099792%, 85.099792%, 85.099792%)" d="M 180.359375 247.246094 L 236.800781 247.246094 L 236.800781 303.644531 L 180.359375 303.644531 Z M 180.359375 247.246094 " fill-opacity="1" fill-rule="nonzero"/><path fill="rgb(85.099792%, 85.099792%, 85.099792%)" d="M 257.96875 70.996094 L 307.359375 70.996094 L 307.359375 120.347656 L 257.96875 120.347656 Z M 257.96875 70.996094 " fill-opacity="1" fill-rule="nonzero"/><path fill="rgb(85.099792%, 85.099792%, 85.099792%)" d="M 304.84375 205.375 L 259.179688 219.015625 L 245.527344 173.390625 L 291.191406 159.75 Z M 304.84375 205.375 " fill-opacity="1" fill-rule="nonzero"/><path fill="rgb(85.099792%, 85.099792%, 85.099792%)" d="M 216.277344 108.851562 L 188.164062 145.933594 L 151.050781 117.84375 L 179.164062 80.757812 Z M 216.277344 108.851562 " fill-opacity="1" fill-rule="nonzero"/><g clip-path="url(#id1)"><path fill="rgb(85.099792%, 85.099792%, 85.099792%)" d="M 130.96875 197.894531 L 60.414062 197.894531 L 60.414062 127.394531 L 130.96875 127.394531 Z M 74.527344 183.796875 L 116.859375 183.796875 L 116.859375 141.496094 L 74.527344 141.496094 Z M 74.527344 183.796875 " fill-opacity="1" fill-rule="nonzero"/></g><g clip-path="url(#id2)"><path fill="rgb(85.099792%, 85.099792%, 85.099792%)" d="M 130.96875 254.296875 L 60.414062 254.296875 L 60.414062 183.796875 L 130.96875 183.796875 Z M 74.527344 240.195312 L 116.859375 240.195312 L 116.859375 197.894531 L 74.527344 197.894531 Z M 74.527344 240.195312 " fill-opacity="1" fill-rule="nonzero"/></g><path fill="rgb(85.099792%, 85.099792%, 85.099792%)" d="M 187.414062 254.296875 L 116.859375 254.296875 L 116.859375 183.796875 L 187.414062 183.796875 Z M 130.96875 240.195312 L 173.304688 240.195312 L 173.304688 197.894531 L 130.96875 197.894531 Z M 130.96875 240.195312 " fill-opacity="1" fill-rule="nonzero"/><g clip-path="url(#id3)"><path fill="rgb(85.099792%, 85.099792%, 85.099792%)" d="M 130.96875 310.695312 L 60.414062 310.695312 L 60.414062 240.195312 L 130.96875 240.195312 Z M 74.527344 296.597656 L 116.859375 296.597656 L 116.859375 254.296875 L 74.527344 254.296875 Z M 74.527344 296.597656 " fill-opacity="1" fill-rule="nonzero"/></g><g clip-path="url(#id4)"><path fill="rgb(85.099792%, 85.099792%, 85.099792%)" d="M 187.414062 310.695312 L 116.859375 310.695312 L 116.859375 240.195312 L 187.414062 240.195312 Z M 130.96875 296.597656 L 173.304688 296.597656 L 173.304688 254.296875 L 130.96875 254.296875 Z M 130.96875 296.597656 " fill-opacity="1" fill-rule="nonzero"/></g><g clip-path="url(#id5)"><path fill="rgb(85.099792%, 85.099792%, 85.099792%)" d="M 243.859375 310.695312 L 173.304688 310.695312 L 173.304688 240.195312 L 243.859375 240.195312 Z M 187.414062 296.597656 L 229.746094 296.597656 L 229.746094 254.296875 L 187.414062 254.296875 Z M 187.414062 296.597656 " fill-opacity="1" fill-rule="nonzero"/></g><g clip-path="url(#id6)"><path fill="rgb(85.099792%, 85.099792%, 85.099792%)" d="M 314.414062 127.394531 L 250.914062 127.394531 L 250.914062 63.945312 L 314.414062 63.945312 Z M 265.023438 113.296875 L 300.300781 113.296875 L 300.300781 78.046875 L 265.023438 78.046875 Z M 265.023438 113.296875 " fill-opacity="1" fill-rule="nonzero"/></g><path fill="rgb(85.099792%, 85.099792%, 85.099792%)" d="M 254.441406 227.824219 L 236.730469 168.679688 L 295.921875 150.992188 L 313.628906 210.121094 Z M 254.300781 178.148438 L 263.917969 210.269531 L 296.054688 200.667969 L 286.4375 168.546875 Z M 254.300781 178.148438 " fill-opacity="1" fill-rule="nonzero"/><path fill="rgb(85.099792%, 85.099792%, 85.099792%)" d="M 189.523438 155.808594 L 141.164062 119.203125 L 177.796875 70.882812 L 226.15625 107.488281 Z M 160.933594 116.476562 L 186.800781 136.054688 L 206.386719 110.207031 L 180.527344 90.628906 Z M 160.933594 116.476562 " fill-opacity="1" fill-rule="nonzero"/></svg>