<svg xmlns="http://www.w3.org/2000/svg" xmlns:xlink="http://www.w3.org/1999/xlink" width="500" zoomAndPan="magnify" viewBox="0 0 375 374.999991" height="500" preserveAspectRatio="xMidYMid meet" version="1.0"><defs><clipPath id="id1"><path d="M 64.027344 129 L 133 129 L 133 198 L 64.027344 198 Z M 64.027344 129 " clip-rule="nonzero"/></clipPath><clipPath id="id2"><path d="M 64.027344 184 L 133 184 L 133 253 L 64.027344 253 Z M 64.027344 184 " clip-rule="nonzero"/></clipPath><clipPath id="id3"><path d="M 64.027344 239 L 133 239 L 133 307.578125 L 64.027344 307.578125 Z M 64.027344 239 " clip-rule="nonzero"/></clipPath><clipPath id="id4"><path d="M 118 239 L 188 239 L 188 307.578125 L 118 307.578125 Z M 118 239 " clip-rule="nonzero"/></clipPath><clipPath id="id5"><path d="M 173 239 L 243 239 L 243 307.578125 L 173 307.578125 Z M 173 239 " clip-rule="nonzero"/></clipPath><clipPath id="id6"><path d="M 249 67.578125 L 310.777344 67.578125 L 310.777344 130 L 249 130 Z M 249 67.578125 " clip-rule="nonzero"/></clipPath></defs><rect x="-37.5" width="450" fill="rgb(100%, 100%, 100%)" y="-37.499999" height="449.999989" fill-opacity="1"/><rect x="-37.5" width="450" fill="rgb(100%, 100%, 100%)" y="-37.499999" height="449.999989" fill-opacity="1"/><rect x="-37.5" width="450" fill="rgb(100%, 100%, 100%)" y="-37.499999" height="449.999989" fill-opacity="1"/><rect x="-37.5" width="450" fill="rgb(100%, 100%, 100%)" y="-37.499999" height="449.999989" fill-opacity="1"/><path fill="rgb(65.098572%, 65.098572%, 65.098572%)" d="M 187.652344 7.277344 C 88.035156 7.277344 7.277344 88.035156 7.277344 187.652344 C 7.277344 287.273438 88.035156 368.027344 187.652344 368.027344 C 287.273438 368.027344 368.027344 287.273438 368.027344 187.652344 C 368.027344 88.035156 287.273438 7.277344 187.652344 7.277344 " fill-opacity="1" fill-rule="nonzero"/><path fill="rgb(85.099792%, 85.099792%, 85.099792%)" d="M 71 136.148438 L 125.777344 136.148438 L 125.777344 191.007812 L 71 191.007812 Z M 71 136.148438 " fill-opacity="1" fill-rule="nonzero"/><path fill="rgb(85.099792%, 85.099792%, 85.099792%)" d="M 71 191.007812 L 125.777344 191.007812 L 125.777344 245.863281 L 71 245.863281 Z M 71 191.007812 " fill-opacity="1" fill-rule="nonzero"/><path fill="rgb(85.099792%, 85.099792%, 85.099792%)" d="M 125.777344 191.007812 L 180.554688 191.007812 L 180.554688 245.863281 L 125.777344 245.863281 Z M 125.777344 191.007812 " fill-opacity="1" fill-rule="nonzero"/><path fill="rgb(85.099792%, 85.099792%, 85.099792%)" d="M 71 245.863281 L 125.777344 245.863281 L 125.777344 300.722656 L 71 300.722656 Z M 71 245.863281 " fill-opacity="1" fill-rule="nonzero"/><path fill="rgb(85.099792%, 85.099792%, 85.099792%)" d="M 125.777344 245.863281 L 180.554688 245.863281 L 180.554688 300.722656 L 125.777344 300.722656 Z M 125.777344 245.863281 " fill-opacity="1" fill-rule="nonzero"/><path fill="rgb(85.099792%, 85.099792%, 85.099792%)" d="M 180.554688 245.863281 L 235.332031 245.863281 L 235.332031 300.722656 L 180.554688 300.722656 Z M 180.554688 245.863281 " fill-opacity="1" fill-rule="nonzero"/><path fill="rgb(85.099792%, 85.099792%, 85.099792%)" d="M 255.875 74.433594 L 303.804688 74.433594 L 303.804688 122.433594 L 255.875 122.433594 Z M 255.875 74.433594 " fill-opacity="1" fill-rule="nonzero"/><path fill="rgb(85.099792%, 85.099792%, 85.099792%)" d="M 301.363281 205.136719 L 257.050781 218.40625 L 243.800781 174.027344 L 288.117188 160.757812 Z M 301.363281 205.136719 " fill-opacity="1" fill-rule="nonzero"/><path fill="rgb(85.099792%, 85.099792%, 85.099792%)" d="M 215.414062 111.253906 L 188.128906 147.324219 L 152.113281 120 L 179.394531 83.929688 Z M 215.414062 111.253906 " fill-opacity="1" fill-rule="nonzero"/><g clip-path="url(#id1)"><path fill="rgb(85.099792%, 85.099792%, 85.099792%)" d="M 132.625 197.863281 L 64.152344 197.863281 L 64.152344 129.292969 L 132.625 129.292969 Z M 77.847656 184.148438 L 118.929688 184.148438 L 118.929688 143.007812 L 77.847656 143.007812 Z M 77.847656 184.148438 " fill-opacity="1" fill-rule="nonzero"/></g><g clip-path="url(#id2)"><path fill="rgb(85.099792%, 85.099792%, 85.099792%)" d="M 132.625 252.722656 L 64.152344 252.722656 L 64.152344 184.148438 L 132.625 184.148438 Z M 77.847656 239.007812 L 118.929688 239.007812 L 118.929688 197.863281 L 77.847656 197.863281 Z M 77.847656 239.007812 " fill-opacity="1" fill-rule="nonzero"/></g><path fill="rgb(85.099792%, 85.099792%, 85.099792%)" d="M 187.402344 252.722656 L 118.929688 252.722656 L 118.929688 184.148438 L 187.402344 184.148438 Z M 132.625 239.007812 L 173.707031 239.007812 L 173.707031 197.863281 L 132.625 197.863281 Z M 132.625 239.007812 " fill-opacity="1" fill-rule="nonzero"/><g clip-path="url(#id3)"><path fill="rgb(85.099792%, 85.099792%, 85.099792%)" d="M 132.625 307.578125 L 64.152344 307.578125 L 64.152344 239.007812 L 132.625 239.007812 Z M 77.847656 293.863281 L 118.929688 293.863281 L 118.929688 252.722656 L 77.847656 252.722656 Z M 77.847656 293.863281 " fill-opacity="1" fill-rule="nonzero"/></g><g clip-path="url(#id4)"><path fill="rgb(85.099792%, 85.099792%, 85.099792%)" d="M 187.402344 307.578125 L 118.929688 307.578125 L 118.929688 239.007812 L 187.402344 239.007812 Z M 132.625 293.863281 L 173.707031 293.863281 L 173.707031 252.722656 L 132.625 252.722656 Z M 132.625 293.863281 " fill-opacity="1" fill-rule="nonzero"/></g><g clip-path="url(#id5)"><path fill="rgb(85.099792%, 85.099792%, 85.099792%)" d="M 242.179688 307.578125 L 173.707031 307.578125 L 173.707031 239.007812 L 242.179688 239.007812 Z M 187.402344 293.863281 L 228.488281 293.863281 L 228.488281 252.722656 L 187.402344 252.722656 Z M 187.402344 293.863281 " fill-opacity="1" fill-rule="nonzero"/></g><g clip-path="url(#id6)"><path fill="rgb(85.099792%, 85.099792%, 85.099792%)" d="M 310.652344 129.292969 L 249.027344 129.292969 L 249.027344 67.578125 L 310.652344 67.578125 Z M 262.722656 115.578125 L 296.960938 115.578125 L 296.960938 81.292969 L 262.722656 81.292969 Z M 262.722656 115.578125 " fill-opacity="1" fill-rule="nonzero"/></g><path fill="rgb(85.099792%, 85.099792%, 85.099792%)" d="M 252.453125 226.972656 L 235.265625 169.449219 L 292.707031 152.242188 L 309.894531 209.753906 Z M 252.316406 178.65625 L 261.648438 209.898438 L 292.835938 200.558594 L 283.503906 169.316406 Z M 252.316406 178.65625 " fill-opacity="1" fill-rule="nonzero"/><path fill="rgb(85.099792%, 85.099792%, 85.099792%)" d="M 189.449219 156.925781 L 142.519531 121.324219 L 178.070312 74.324219 L 225 109.925781 Z M 161.707031 118.671875 L 186.808594 137.710938 L 205.816406 112.574219 L 180.71875 93.53125 Z M 161.707031 118.671875 " fill-opacity="1" fill-rule="nonzero"/></svg>