<?xml version="1.0" encoding="utf-8"?>
<!-- Generator: Adobe Illustrator 25.0.0, SVG Export Plug-In . SVG Version: 6.00 Build 0)  -->
<svg version="1.1" id="Layer_1" xmlns="http://www.w3.org/2000/svg" xmlns:xlink="http://www.w3.org/1999/xlink" x="0px" y="0px"
	 viewBox="0 0 30 30" style="enable-background:new 0 0 30 30;" xml:space="preserve">
<style type="text/css">
	.st0{fill:#FFFFFF;}
</style>
<g>
	<path class="st0" d="M15.36,24.55c-2.08-0.03-3.95-0.22-5.77-0.77c-0.9-0.27-1.78-0.62-2.62-1.05C6.32,22.4,6.2,21.9,6.25,21.22
		c0.01-0.18,0.03-0.37,0.02-0.55c-0.07-1.06,0.43-1.79,1.26-2.37c0.77-0.54,1.65-0.79,2.53-1.03c0.68-0.18,1.35-0.4,2.02-0.59
		c0.64-0.18,0.86-1,0.52-1.46c-0.46-0.62-0.72-1.35-0.94-2.09c-0.09-0.28-0.26-0.56-0.45-0.79c-0.34-0.42-0.54-0.89-0.59-1.42
		c-0.02-0.19,0.04-0.36,0.24-0.41c0.14-0.04,0.13-0.1,0.12-0.22c-0.05-0.59-0.16-1.19-0.11-1.77c0.14-1.55,0.93-2.58,2.6-2.94
		c1.01-0.22,2-0.14,2.95,0.3c0.41,0.19,0.83,0.33,1.24,0.52C18.51,6.78,18.9,7.48,19,8.37c0.06,0.61,0.07,1.22,0.11,1.83
		c0.01,0.1,0.03,0.23,0.1,0.27c0.15,0.09,0.15,0.22,0.13,0.35c-0.04,0.29-0.08,0.58-0.16,0.86c-0.06,0.18-0.16,0.37-0.29,0.5
		c-0.3,0.31-0.46,0.67-0.55,1.08c-0.12,0.62-0.3,1.23-0.66,1.77c-0.06,0.09-0.11,0.18-0.18,0.25c-0.38,0.35-0.18,1.01,0.26,1.18
		c0.62,0.24,1.25,0.49,1.89,0.7c0.79,0.26,1.61,0.42,2.37,0.74c0.86,0.36,1.53,0.98,1.74,1.94c0.09,0.42,0.04,0.88,0.04,1.32
		c0,0.21,0,0.43-0.01,0.64c-0.01,0.31-0.12,0.56-0.4,0.74c-0.92,0.58-1.92,1-2.98,1.27c-0.89,0.22-1.78,0.4-2.68,0.57
		c-0.4,0.07-0.82,0.08-1.23,0.11C16.06,24.53,15.62,24.54,15.36,24.55z"/>
	<path class="st0" d="M21.72,16.74c0.22-0.21,0.45-0.39,0.62-0.61c0.32-0.41,0.11-0.99-0.39-1.15c-0.46-0.15-0.91-0.32-1.36-0.48
		c-0.08-0.03-0.16-0.08-0.22-0.14c-0.04-0.04-0.07-0.15-0.04-0.18c0.22-0.33,0.25-0.72,0.28-1.09c0.05-0.62,0.03-1.24,0.11-1.85
		c0.07-0.52,0.2-1.04,0.36-1.54c0.13-0.39,0.43-0.67,0.81-0.84c0.48-0.21,0.97-0.44,1.47-0.58c1.06-0.29,2.05-0.12,2.87,0.66
		c0.41,0.39,0.54,0.93,0.66,1.47c0.16,0.75,0.16,1.51,0.14,2.28c-0.01,0.53,0.12,1.02,0.39,1.47c0.15,0.25,0.15,0.31-0.13,0.4
		c-0.5,0.17-1.01,0.32-1.52,0.43c-0.63,0.13-0.89,0.66-0.52,1.16c0.11,0.15,0.29,0.27,0.46,0.37c0.6,0.35,1.27,0.47,1.92,0.68
		c0.52,0.17,1.04,0.35,1.51,0.6c0.52,0.27,0.76,0.77,0.82,1.35c0.03,0.31,0.03,0.62,0.05,0.93c0.02,0.33-0.13,0.54-0.42,0.68
		c-0.78,0.36-1.59,0.61-2.44,0.75c-0.75,0.13-1.5,0.2-2.25,0.29c-0.15,0.02-0.15-0.05-0.14-0.19c0.12-1.19,0.01-2.32-0.77-3.3
		c-0.54-0.68-1.25-1.11-2.04-1.42c-0.06-0.02-0.12-0.04-0.18-0.07C21.74,16.78,21.73,16.75,21.72,16.74z"/>
	<path class="st0" d="M9.22,16.5c-0.45,0.17-0.88,0.31-1.29,0.5c-1.07,0.5-1.97,1.2-2.4,2.34c-0.12,0.32-0.17,0.67-0.2,1.02
		c-0.03,0.45-0.01,0.9-0.01,1.35c0,0.14-0.03,0.22-0.19,0.2c-0.71-0.13-1.43-0.21-2.11-0.41c-0.82-0.24-1.6-0.58-2.4-0.88
		c-0.13-0.05-0.27-0.1-0.38-0.19c-0.1-0.09-0.22-0.22-0.23-0.34c-0.02-0.49-0.06-0.99,0.01-1.47c0.11-0.76,0.64-1.2,1.33-1.45
		c0.82-0.3,1.66-0.55,2.5-0.82c0.14-0.05,0.29-0.09,0.42-0.16c0.41-0.2,0.53-0.57,0.35-1c-0.26-0.6-0.5-1.2-0.78-1.78
		c-0.1-0.21-0.29-0.38-0.4-0.59c-0.12-0.23-0.19-0.48-0.27-0.72c-0.02-0.05,0-0.14,0.03-0.18c0.17-0.21,0.14-0.46,0.15-0.7
		c0.02-0.5,0-1.01,0.1-1.49c0.2-0.94,0.88-1.4,1.78-1.59c0.79-0.17,1.54-0.08,2.25,0.3c0.17,0.09,0.37,0.15,0.55,0.22
		c0.69,0.28,1.11,0.78,1.2,1.52c0.05,0.42,0.03,0.86,0.05,1.28c0,0.06-0.02,0.14,0.01,0.19c0.32,0.46,0.13,0.94-0.14,1.24
		c-0.34,0.39-0.37,0.83-0.54,1.26c-0.13,0.34-0.27,0.7-0.48,0.99c-0.27,0.39-0.13,0.78,0.23,0.95C8.65,16.23,8.92,16.36,9.22,16.5z"
		/>
</g>
</svg>
