<?xml version="1.0" encoding="utf-8"?>
<!-- Generator: Adobe Illustrator 25.0.0, SVG Export Plug-In . SVG Version: 6.00 Build 0)  -->
<svg version="1.1" id="Layer_1" xmlns="http://www.w3.org/2000/svg" xmlns:xlink="http://www.w3.org/1999/xlink" x="0px" y="0px"
	 viewBox="0 0 30 30" style="enable-background:new 0 0 30 30;" xml:space="preserve">
<style type="text/css">
	.st0{fill:#FFFFFF;}
</style>
<g>
	<path class="st0" d="M7.1,26.81c-1.72,0-3.45,0-5.17,0c-0.72,0-1.24-0.32-1.45-0.91c-0.08-0.22-0.12-0.47-0.12-0.71
		c-0.02-0.65,0-1.3-0.01-1.94c-0.02-0.93,0.35-1.67,1.07-2.24c2.12-1.69,4.37-3.17,6.79-4.4c0.41-0.21,0.61-0.44,0.56-0.92
		c-0.04-0.43,0-0.87-0.01-1.3c0-0.19,0-0.4-0.06-0.58c-0.21-0.6-0.41-1.21-0.67-1.79c-0.14-0.31-0.44-0.54-0.6-0.85
		c-0.4-0.77-0.6-1.61-0.61-2.48c0-0.38,0.12-0.7,0.5-0.85c0.18-0.08,0.13-0.2,0.1-0.32c-0.21-0.89-0.31-1.79-0.22-2.7
		c0.04-0.45,0.14-0.9,0.25-1.33C7.6,2.92,7.95,2.5,8.47,2.2c0.31-0.18,0.6-0.41,0.84-0.67c1.83-1.92,4.87-1.98,6.9-0.45
		c0.97,0.74,1.82,1.57,2.31,2.71c0.5,1.16,0.51,2.36,0.25,3.57C18.71,7.63,18.7,7.83,19,7.98c0.27,0.14,0.36,0.43,0.34,0.72
		c-0.07,1.05-0.25,2.07-0.91,2.95c-0.17,0.23-0.3,0.49-0.42,0.75c-0.19,0.43-0.42,0.86-0.51,1.31c-0.11,0.57-0.12,1.16-0.1,1.74
		c0.01,0.48-0.12,0.83-0.48,1.17c-1.11,1.03-1.89,2.27-2.22,3.76c-0.27,1.22-0.21,2.43,0.09,3.63c0.09,0.36,0.04,0.63-0.24,0.9
		c-0.53,0.51-1.04,1.03-1.53,1.57c-0.23,0.25-0.48,0.36-0.82,0.36C10.49,26.81,8.79,26.81,7.1,26.81C7.1,26.81,7.1,26.81,7.1,26.81z
		"/>
	<path class="st0" d="M27.33,22.06c0.01,0.89-0.17,1.73-0.59,2.51c-0.13,0.24-0.09,0.4,0.1,0.58c0.77,0.76,1.54,1.53,2.3,2.3
		c0.52,0.53,0.65,1.15,0.38,1.72c-0.41,0.87-1.53,1.1-2.27,0.44c-0.48-0.43-0.93-0.91-1.39-1.36c-0.33-0.33-0.68-0.66-1-1.01
		c-0.21-0.23-0.4-0.26-0.68-0.12c-1.09,0.54-2.23,0.73-3.43,0.49c-2.24-0.44-3.76-1.75-4.42-3.93c-0.92-3.04,0.76-6.13,3.81-7.03
		c2.89-0.85,5.99,0.69,6.92,3.71c0.17,0.54,0.23,1.12,0.33,1.67C27.38,22.05,27.35,22.06,27.33,22.06z M21.72,25.13
		c1.73,0,3.04-1.35,3.05-3.11c0-1.66-1.38-3.01-3.07-3.01c-1.66,0-3.06,1.39-3.06,3.03C18.65,23.77,20,25.13,21.72,25.13z"/>
</g>
</svg>
