<?xml version="1.0" encoding="utf-8"?>
<!-- Generator: Adobe Illustrator 25.0.0, SVG Export Plug-In . SVG Version: 6.00 Build 0)  -->
<svg version="1.1" id="Layer_1" xmlns="http://www.w3.org/2000/svg" xmlns:xlink="http://www.w3.org/1999/xlink" x="0px" y="0px"
	 viewBox="0 0 30 30" style="enable-background:new 0 0 30 30;" xml:space="preserve">
<style type="text/css">
	.st0{fill:#FFFFFF;}
</style>
<g>
	<path class="st0" d="M25.43,15.63c-0.3-0.09-0.49,0.09-0.67,0.36c-0.45,0.72-1.04,1.31-1.76,1.76c-0.18,0.11-0.24,0.25-0.23,0.47
		c0.03,0.8-0.39,1.36-1.04,1.77c-0.16,0.1-0.34,0.16-0.52,0.22c-0.15,0.05-0.26,0.13-0.29,0.29c-0.17,0.88-0.74,1.35-1.59,1.52
		c-0.08,0.02-0.18,0.1-0.2,0.18c-0.25,0.89-0.86,1.32-1.74,1.4c-0.19,0.02-0.26,0.1-0.31,0.26c-0.19,0.53-0.5,0.96-1.04,1.17
		c-0.65,0.25-1.27,0.19-1.82-0.24c-0.49-0.38-0.94-0.8-1.41-1.21c-0.13-0.12-0.22-0.15-0.39-0.04c-0.92,0.61-1.93,0.32-2.4-0.68
		c-0.11-0.23-0.24-0.37-0.49-0.44C9.07,22.3,8.72,22,8.49,21.58c-0.1-0.19-0.24-0.28-0.44-0.31c-0.76-0.13-1.24-0.57-1.46-1.3
		c-0.05-0.19-0.16-0.3-0.33-0.37c-0.92-0.41-1.3-1.22-1-2.18c0.06-0.2,0.05-0.36-0.06-0.53c-0.22-0.33-0.41-0.67-0.64-0.99
		c-0.09-0.12-0.25-0.23-0.4-0.26c-0.39-0.08-0.74-0.22-1.04-0.47c-0.81-0.67-1.61-1.34-2.41-2.03c-0.54-0.46-0.8-1.05-0.69-1.77
		c0.05-0.37,0.22-0.69,0.46-0.98c1.34-1.6,2.68-3.21,4.03-4.81C5.3,4.65,6.39,4.57,7.33,5.34C8.13,6,8.93,6.66,9.71,7.33
		c0.18,0.15,0.31,0.36,0.44,0.56c0.11,0.18,0.26,0.3,0.47,0.31c1.03,0.08,2.05,0.26,3.03,0.61c0.19,0.07,0.44-0.01,0.66-0.05
		c0.87-0.16,1.74-0.17,2.61-0.15c0.77,0.02,1.54,0.06,2.31,0.1c0.18,0.01,0.26-0.04,0.3-0.22c0.11-0.49,0.39-0.89,0.77-1.21
		c0.79-0.66,1.57-1.33,2.36-1.97c0.89-0.72,2-0.65,2.73,0.2c1.39,1.62,2.76,3.26,4.11,4.91c0.72,0.88,0.61,1.96-0.25,2.71
		c-0.82,0.71-1.66,1.4-2.5,2.09C26.4,15.53,25.96,15.66,25.43,15.63z M6.11,16.26c0.09-0.08,0.16-0.14,0.23-0.19
		c0.45-0.35,0.94-0.55,1.52-0.39c0.43,0.12,0.75,0.39,0.99,0.74c0.1,0.15,0.21,0.18,0.38,0.15c1.07-0.23,2.03,0.55,2.04,1.64
		c0,0.15,0.05,0.22,0.18,0.27c0.56,0.24,0.96,0.65,1.06,1.27c0.04,0.27,0.16,0.42,0.39,0.55c0.57,0.33,0.92,0.81,0.81,1.51
		c-0.03,0.21-0.13,0.4-0.18,0.6c-0.02,0.09-0.02,0.22,0.03,0.29c0.37,0.49,0.81,0.91,1.33,1.25c0.21,0.14,0.44,0.16,0.67,0.1
		c0.47-0.12,0.63-0.61,0.32-0.99c-0.08-0.1-0.17-0.17-0.26-0.26c-0.28-0.29-0.58-0.58-0.85-0.88c-0.2-0.23-0.19-0.49,0-0.69
		c0.2-0.21,0.46-0.24,0.71-0.06c0.09,0.07,0.18,0.15,0.26,0.23c0.32,0.29,0.63,0.58,0.96,0.86c0.23,0.2,0.51,0.24,0.8,0.21
		c0.21-0.02,0.5-0.27,0.54-0.46c0.05-0.22-0.14-0.3-0.27-0.41c-0.28-0.25-0.57-0.49-0.85-0.75c-0.13-0.12-0.25-0.24-0.37-0.37
		c-0.17-0.2-0.16-0.48-0.01-0.66c0.17-0.2,0.43-0.25,0.67-0.11c0.11,0.06,0.2,0.15,0.29,0.23c0.28,0.24,0.57,0.48,0.85,0.72
		c0.24,0.2,0.53,0.27,0.83,0.28c0.32,0.01,0.61-0.23,0.67-0.54c0.03-0.16-0.01-0.29-0.16-0.37c-0.12-0.07-0.24-0.13-0.36-0.2
		c-0.45-0.25-0.82-0.6-1.1-1.04c-0.18-0.28-0.14-0.57,0.08-0.74c0.24-0.19,0.53-0.15,0.76,0.09c0.07,0.07,0.12,0.15,0.18,0.22
		c0.31,0.38,0.69,0.64,1.16,0.79c0.49,0.15,0.95-0.03,1.18-0.48c0.14-0.27,0.11-0.43-0.14-0.6c-0.25-0.17-0.51-0.34-0.76-0.51
		c-1.4-0.98-2.65-2.11-3.7-3.47c-0.29-0.37-0.63-0.68-1.12-0.67c-0.61,0.01-1.22,0.1-1.76,0.44c-0.31,0.2-0.62,0.38-0.94,0.56
		c-0.52,0.29-1.06,0.32-1.62,0.1c-0.99-0.39-1.54-1.33-1.35-2.37c0.12-0.68,0.52-1.18,1.05-1.58c0.35-0.27,0.73-0.51,1.09-0.77
		c0.06-0.04,0.11-0.09,0.18-0.15c-0.04-0.04-0.05-0.06-0.07-0.06c-0.63-0.09-1.25-0.18-1.88-0.26c-0.17-0.02-0.26,0.09-0.33,0.23
		C10.17,9.7,10.09,9.86,9.98,10c-0.62,0.75-1.25,1.5-1.88,2.25c-0.82,0.98-1.65,1.97-2.46,2.95c-0.04,0.05-0.09,0.16-0.06,0.2
		C5.74,15.69,5.92,15.97,6.11,16.26z M17.8,13.35c0.06,0.09,0.1,0.15,0.15,0.21c1.08,1.28,2.32,2.39,3.71,3.33
		c0.22,0.15,0.41,0.15,0.62,0.02c0.69-0.4,1.21-0.97,1.65-1.62c0.18-0.26,0.17-0.37-0.04-0.62c-1.25-1.47-2.51-2.93-3.75-4.41
		c-0.24-0.29-0.51-0.42-0.88-0.43c-1.22-0.03-2.43-0.06-3.65-0.1C14.77,9.7,14,9.92,13.3,10.41c-0.42,0.3-0.87,0.57-1.25,0.91
		c-0.28,0.24-0.5,0.56-0.71,0.87c-0.08,0.12-0.1,0.32-0.08,0.48c0.1,0.69,0.88,1.07,1.49,0.73c0.43-0.24,0.83-0.51,1.26-0.74
		c0.22-0.12,0.47-0.23,0.71-0.25c1.02-0.08,2.04-0.13,3.05-0.19c0.09-0.01,0.19,0,0.28,0.02c0.27,0.05,0.43,0.23,0.45,0.49
		c0.02,0.24-0.11,0.44-0.36,0.53C18.05,13.29,17.95,13.31,17.8,13.35z M10.2,18.15c-0.05-0.12-0.07-0.21-0.12-0.29
		c-0.22-0.31-0.58-0.32-0.88-0.02c-0.46,0.47-0.91,0.96-1.37,1.44c-0.28,0.3-0.27,0.41,0.01,0.69c0.33,0.32,0.42,0.33,0.75,0.01
		c0.47-0.47,0.93-0.96,1.39-1.45C10.07,18.42,10.13,18.27,10.2,18.15z M11.45,20.02c-0.05-0.3-0.25-0.42-0.43-0.55
		c-0.06-0.04-0.18-0.05-0.24-0.02c-0.56,0.29-0.93,0.78-1.32,1.24c-0.05,0.06-0.07,0.18-0.06,0.26c0.08,0.4,0.56,0.57,0.87,0.3
		c0.35-0.31,0.68-0.63,1.01-0.96C11.36,20.22,11.4,20.1,11.45,20.02z M6.24,17.94c0,0.27,0.13,0.49,0.33,0.6
		c0.17,0.09,0.34,0.08,0.47-0.04c0.32-0.32,0.64-0.64,0.93-0.98c0.16-0.19,0.06-0.48-0.18-0.69c-0.21-0.18-0.4-0.19-0.6,0.01
		c-0.28,0.28-0.55,0.58-0.82,0.88C6.29,17.79,6.26,17.9,6.24,17.94z M12.09,21.18c-0.05,0.02-0.17,0.06-0.26,0.13
		c-0.18,0.14-0.35,0.31-0.52,0.47c-0.49,0.47-0.48,0.49,0,0.97c0.1,0.09,0.17,0.1,0.29,0.04c0.41-0.21,0.7-0.56,0.97-0.92
		c0.07-0.09,0.06-0.28,0.02-0.4C12.52,21.28,12.37,21.18,12.09,21.18z"/>
</g>
</svg>
