<?xml version="1.0" encoding="utf-8"?>
<!-- Generator: Adobe Illustrator 25.0.0, SVG Export Plug-In . SVG Version: 6.00 Build 0)  -->
<svg version="1.1" id="Layer_1" xmlns="http://www.w3.org/2000/svg" xmlns:xlink="http://www.w3.org/1999/xlink" x="0px" y="0px"
	 viewBox="0 0 241.8 67.9" style="enable-background:new 0 0 241.8 67.9;" xml:space="preserve">
<style type="text/css">
	.st0{enable-background:new    ;}
	.st1{fill:#FFFFFF;}
	.st2{fill:#5D5DFF;}
</style>
<g>
	<g>
		<g class="st0">
			<path class="st1" d="M63.8,4.1h4l7,17.2h0.3l7-17.2h4v22.1H83v-16h-0.2l-6.5,16h-2.6l-6.5-16h-0.2v16h-3.2V4.1z"/>
			<path class="st1" d="M95.6,26.6c-1.1,0-2-0.2-2.8-0.6c-0.8-0.4-1.5-1-2-1.7c-0.5-0.7-0.7-1.7-0.7-2.8c0-0.9,0.2-1.7,0.5-2.3
				s0.8-1.1,1.5-1.4c0.6-0.4,1.3-0.6,2-0.8c0.8-0.2,1.5-0.3,2.3-0.4c1-0.1,1.8-0.2,2.4-0.3c0.6-0.1,1.1-0.2,1.3-0.4
				c0.3-0.2,0.4-0.5,0.4-0.8V15c0-0.9-0.3-1.7-0.8-2.2c-0.5-0.5-1.3-0.8-2.4-0.8c-1.1,0-1.9,0.2-2.6,0.7c-0.6,0.5-1.1,1-1.3,1.6
				l-3-0.7c0.4-1,0.9-1.8,1.6-2.4c0.7-0.6,1.5-1.1,2.4-1.4c0.9-0.3,1.9-0.4,2.9-0.4c0.7,0,1.4,0.1,2.1,0.2c0.7,0.2,1.4,0.4,2.1,0.8
				s1.2,1,1.6,1.8c0.4,0.8,0.6,1.7,0.6,3v11h-3.2V24h-0.1c-0.2,0.4-0.5,0.8-0.9,1.2c-0.4,0.4-1,0.7-1.6,1
				C97.3,26.5,96.5,26.6,95.6,26.6z M96.3,24c0.9,0,1.7-0.2,2.3-0.5s1.1-0.8,1.5-1.4c0.3-0.6,0.5-1.2,0.5-1.8v-2.1
				c-0.1,0.1-0.3,0.2-0.7,0.3c-0.3,0.1-0.7,0.2-1.1,0.2c-0.4,0.1-0.8,0.1-1.2,0.2c-0.4,0.1-0.7,0.1-1,0.1c-0.6,0.1-1.2,0.2-1.7,0.4
				c-0.5,0.2-0.9,0.5-1.2,0.8c-0.3,0.3-0.5,0.8-0.5,1.4c0,0.8,0.3,1.4,0.9,1.8S95.4,24,96.3,24z"/>
			<path class="st1" d="M114.3,26.6c-1.3,0-2.5-0.3-3.6-1c-1-0.7-1.9-1.7-2.5-2.9c-0.6-1.3-0.9-2.8-0.9-4.6s0.3-3.3,0.9-4.6
				c0.6-1.3,1.4-2.2,2.5-2.9c1.1-0.7,2.2-1,3.6-1c1,0,1.9,0.2,2.5,0.5s1.1,0.7,1.5,1.2c0.3,0.5,0.6,0.9,0.8,1.2h0.2V4.1h3.2v22.1
				h-3.2v-2.6h-0.3c-0.2,0.4-0.5,0.8-0.8,1.2s-0.9,0.8-1.5,1.2C116.1,26.4,115.3,26.6,114.3,26.6z M115,23.8c0.9,0,1.7-0.2,2.4-0.7
				c0.6-0.5,1.1-1.2,1.5-2.1c0.3-0.9,0.5-1.9,0.5-3.1c0-1.2-0.2-2.2-0.5-3c-0.3-0.9-0.8-1.5-1.5-2c-0.6-0.5-1.4-0.7-2.4-0.7
				c-1,0-1.8,0.3-2.4,0.8c-0.6,0.5-1.1,1.2-1.5,2.1s-0.5,1.9-0.5,2.9c0,1.1,0.2,2.1,0.5,3c0.3,0.9,0.8,1.6,1.5,2.1
				C113.2,23.6,114,23.8,115,23.8z"/>
			<path class="st1" d="M134.2,26.6c-1.6,0-3-0.4-4.2-1.1c-1.2-0.7-2.1-1.7-2.7-3c-0.6-1.3-1-2.8-1-4.5c0-1.7,0.3-3.2,1-4.5
				c0.6-1.3,1.5-2.3,2.7-3s2.5-1.1,4-1.1c0.9,0,1.8,0.2,2.7,0.5c0.9,0.3,1.7,0.8,2.4,1.5c0.7,0.7,1.2,1.5,1.7,2.6
				c0.4,1.1,0.6,2.3,0.6,3.8v1.1h-13.2v-2.4h10c0-0.8-0.2-1.6-0.5-2.3c-0.3-0.7-0.8-1.2-1.5-1.6c-0.6-0.4-1.4-0.6-2.2-0.6
				c-0.9,0-1.7,0.2-2.4,0.7c-0.7,0.4-1.2,1-1.6,1.7c-0.4,0.7-0.5,1.5-0.5,2.3v1.9c0,1.1,0.2,2.1,0.6,2.8s0.9,1.4,1.6,1.8
				c0.7,0.4,1.5,0.6,2.5,0.6c0.6,0,1.2-0.1,1.7-0.3c0.5-0.2,0.9-0.4,1.3-0.8c0.4-0.4,0.6-0.8,0.8-1.3l3.1,0.6
				c-0.2,0.9-0.7,1.7-1.3,2.4c-0.6,0.7-1.4,1.2-2.4,1.6C136.5,26.4,135.4,26.6,134.2,26.6z"/>
			<path class="st1" d="M154.6,7.1c-0.6,0-1-0.2-1.4-0.6c-0.4-0.4-0.6-0.8-0.6-1.4c0-0.5,0.2-1,0.6-1.4c0.4-0.4,0.9-0.6,1.4-0.6
				c0.6,0,1,0.2,1.4,0.6c0.4,0.4,0.6,0.8,0.6,1.4c0,0.5-0.2,1-0.6,1.4C155.6,6.9,155.2,7.1,154.6,7.1z M153,26.2V9.7h3.2v16.6H153z"
				/>
			<path class="st1" d="M163.8,16.4v9.8h-3.2V9.7h3.1v2.7h0.2c0.4-0.9,1-1.6,1.8-2.1s1.8-0.8,3.1-0.8c1.1,0,2.1,0.2,3,0.7
				c0.8,0.5,1.5,1.2,2,2.1s0.7,2.1,0.7,3.4v10.5h-3.2V16.1c0-1.2-0.3-2.1-0.9-2.8c-0.6-0.7-1.5-1-2.6-1c-0.7,0-1.4,0.2-2,0.5
				c-0.6,0.3-1,0.8-1.4,1.4C163.9,14.8,163.8,15.5,163.8,16.4z"/>
		</g>
		<g class="st0">
			<path class="st1" d="M62.3,40.5v-4.3H81v4.3h-6.7v17.8H69V40.5H62.3z"/>
			<path class="st1" d="M86,58.5c-1.1,0-2-0.2-2.8-0.5c-0.8-0.4-1.5-0.9-1.9-1.6s-0.7-1.6-0.7-2.7c0-0.9,0.2-1.7,0.5-2.3
				s0.8-1.1,1.3-1.5s1.2-0.7,2-0.9c0.7-0.2,1.5-0.3,2.4-0.4c0.9-0.1,1.7-0.2,2.3-0.3c0.6-0.1,1-0.2,1.3-0.4c0.3-0.2,0.4-0.4,0.4-0.8
				v-0.1c0-0.6-0.2-1-0.6-1.3c-0.4-0.3-0.9-0.5-1.5-0.5c-0.7,0-1.3,0.2-1.7,0.5c-0.4,0.3-0.7,0.7-0.8,1.3l-4.9-0.2
				c0.1-1,0.5-1.9,1.1-2.7s1.4-1.4,2.5-1.9c1.1-0.5,2.3-0.7,3.8-0.7c1.1,0,2,0.1,2.9,0.4c0.9,0.2,1.7,0.6,2.3,1.1
				c0.7,0.5,1.2,1,1.5,1.7c0.4,0.7,0.5,1.5,0.5,2.3v11.3h-5v-2.3h-0.1c-0.3,0.6-0.7,1-1.1,1.4c-0.5,0.4-1,0.7-1.6,0.9
				C87.5,58.4,86.8,58.5,86,58.5z M87.6,55.1c0.6,0,1.1-0.1,1.5-0.3c0.5-0.2,0.8-0.5,1.1-1c0.3-0.4,0.4-0.9,0.4-1.4v-1.6
				c-0.2,0.1-0.3,0.2-0.5,0.2c-0.2,0.1-0.4,0.1-0.7,0.2c-0.3,0.1-0.5,0.1-0.8,0.2s-0.5,0.1-0.8,0.1c-0.5,0.1-0.9,0.2-1.3,0.4
				c-0.3,0.2-0.6,0.4-0.8,0.6s-0.3,0.6-0.3,0.9c0,0.5,0.2,1,0.6,1.3C86.5,54.9,87,55.1,87.6,55.1z"/>
			<path class="st1" d="M99.1,58.2V41.7h5v3h0.2c0.3-1,0.9-1.8,1.7-2.4s1.8-0.9,2.9-0.9c1.2,0,2.1,0.3,3,0.9
				c0.8,0.6,1.3,1.4,1.6,2.4h0.2c0.3-1,0.9-1.8,1.8-2.4c0.9-0.6,2-0.9,3.2-0.9c1.6,0,2.8,0.5,3.8,1.5c1,1,1.5,2.4,1.5,4.1v11.2h-5.3
				v-9.9c0-0.8-0.2-1.5-0.6-1.9c-0.4-0.4-1-0.7-1.7-0.7c-0.7,0-1.3,0.2-1.7,0.7s-0.6,1.1-0.6,1.9v9.9H109v-10c0-0.8-0.2-1.4-0.6-1.8
				c-0.4-0.4-1-0.7-1.7-0.7c-0.5,0-0.9,0.1-1.2,0.3c-0.4,0.2-0.6,0.5-0.8,0.9c-0.2,0.4-0.3,0.9-0.3,1.4v9.8H99.1z"/>
			<path class="st1" d="M127.3,64.5V41.7h5.2v2.8h0.2c0.2-0.5,0.5-1,0.9-1.5c0.4-0.5,0.9-0.9,1.5-1.1c0.6-0.3,1.4-0.4,2.2-0.4
				c1.2,0,2.2,0.3,3.2,0.9c1,0.6,1.8,1.5,2.4,2.8c0.6,1.3,0.9,2.9,0.9,4.8c0,1.9-0.3,3.4-0.9,4.7c-0.6,1.3-1.4,2.2-2.4,2.8
				c-1,0.6-2.1,0.9-3.3,0.9c-0.8,0-1.6-0.1-2.2-0.4s-1.1-0.6-1.5-1.1c-0.4-0.4-0.7-0.9-1-1.4h-0.1v8.9H127.3z M132.4,50
				c0,0.9,0.1,1.7,0.4,2.3c0.2,0.7,0.6,1.2,1,1.5s1,0.5,1.6,0.5c0.6,0,1.2-0.2,1.7-0.5s0.8-0.9,1-1.5c0.2-0.7,0.4-1.4,0.4-2.3
				s-0.1-1.7-0.4-2.3c-0.2-0.7-0.6-1.2-1-1.5c-0.5-0.4-1-0.5-1.7-0.5c-0.6,0-1.2,0.2-1.7,0.5c-0.5,0.4-0.8,0.9-1,1.5
				C132.6,48.3,132.4,49,132.4,50z"/>
			<path class="st1" d="M151.4,58.5c-1.1,0-2-0.2-2.8-0.5c-0.8-0.4-1.5-0.9-1.9-1.6c-0.5-0.7-0.7-1.6-0.7-2.7c0-0.9,0.2-1.7,0.5-2.3
				c0.3-0.6,0.8-1.1,1.3-1.5s1.2-0.7,2-0.9s1.5-0.3,2.4-0.4c0.9-0.1,1.7-0.2,2.3-0.3c0.6-0.1,1-0.2,1.3-0.4s0.4-0.4,0.4-0.8v-0.1
				c0-0.6-0.2-1-0.6-1.3c-0.4-0.3-0.9-0.5-1.5-0.5c-0.7,0-1.3,0.2-1.7,0.5c-0.4,0.3-0.7,0.7-0.8,1.3l-4.9-0.2c0.1-1,0.5-1.9,1.1-2.7
				s1.4-1.4,2.5-1.9c1.1-0.5,2.3-0.7,3.8-0.7c1.1,0,2,0.1,2.9,0.4s1.7,0.6,2.3,1.1c0.7,0.5,1.2,1,1.5,1.7c0.4,0.7,0.5,1.5,0.5,2.3
				v11.3h-5v-2.3h-0.1c-0.3,0.6-0.7,1-1.1,1.4c-0.5,0.4-1,0.7-1.6,0.9C152.8,58.4,152.1,58.5,151.4,58.5z M153,55.1
				c0.6,0,1.1-0.1,1.5-0.3c0.5-0.2,0.8-0.5,1.1-1c0.3-0.4,0.4-0.9,0.4-1.4v-1.6c-0.2,0.1-0.3,0.2-0.5,0.2c-0.2,0.1-0.4,0.1-0.7,0.2
				c-0.3,0.1-0.5,0.1-0.8,0.2c-0.3,0-0.5,0.1-0.8,0.1c-0.5,0.1-0.9,0.2-1.3,0.4c-0.3,0.2-0.6,0.4-0.8,0.6s-0.3,0.6-0.3,0.9
				c0,0.5,0.2,1,0.6,1.3C151.9,54.9,152.4,55.1,153,55.1z"/>
			<path class="st1" d="M171,58.2V36.1h9.2c1.7,0,3,0.2,4.2,0.7c1.1,0.5,2,1.1,2.5,2c0.6,0.8,0.8,1.8,0.8,2.9c0,0.8-0.2,1.6-0.5,2.2
				s-0.8,1.2-1.5,1.6c-0.6,0.4-1.3,0.7-2.1,0.9v0.2c0.9,0,1.7,0.3,2.5,0.7s1.4,1,1.8,1.8s0.7,1.7,0.7,2.8c0,1.2-0.3,2.2-0.9,3.2
				s-1.5,1.7-2.6,2.2c-1.1,0.5-2.5,0.8-4.2,0.8H171z M176.4,45.2h3c0.6,0,1.1-0.1,1.6-0.3s0.8-0.5,1.1-0.8c0.3-0.4,0.4-0.8,0.4-1.3
				c0-0.7-0.3-1.3-0.8-1.7c-0.5-0.4-1.2-0.6-2.1-0.6h-3V45.2z M176.4,53.9h3.3c1.2,0,2-0.2,2.6-0.7c0.6-0.4,0.8-1,0.8-1.8
				c0-0.6-0.1-1.1-0.4-1.5c-0.3-0.4-0.6-0.7-1.1-1c-0.5-0.2-1.1-0.3-1.8-0.3h-3.4V53.9z"/>
			<path class="st1" d="M195.9,58.5c-1.1,0-2-0.2-2.8-0.5c-0.8-0.4-1.5-0.9-1.9-1.6c-0.5-0.7-0.7-1.6-0.7-2.7c0-0.9,0.2-1.7,0.5-2.3
				c0.3-0.6,0.8-1.1,1.3-1.5s1.2-0.7,2-0.9c0.7-0.2,1.5-0.3,2.4-0.4c0.9-0.1,1.7-0.2,2.3-0.3c0.6-0.1,1-0.2,1.3-0.4
				c0.3-0.2,0.4-0.4,0.4-0.8v-0.1c0-0.6-0.2-1-0.6-1.3c-0.4-0.3-0.9-0.5-1.5-0.5c-0.7,0-1.3,0.2-1.7,0.5c-0.4,0.3-0.7,0.7-0.8,1.3
				l-4.9-0.2c0.1-1,0.5-1.9,1.1-2.7s1.4-1.4,2.5-1.9s2.3-0.7,3.8-0.7c1.1,0,2,0.1,2.9,0.4c0.9,0.2,1.7,0.6,2.3,1.1
				c0.7,0.5,1.2,1,1.5,1.7c0.4,0.7,0.5,1.5,0.5,2.3v11.3h-5v-2.3h-0.1c-0.3,0.6-0.7,1-1.1,1.4s-1,0.7-1.6,0.9S196.6,58.5,195.9,58.5
				z M197.5,55.1c0.6,0,1.1-0.1,1.5-0.3c0.5-0.2,0.8-0.5,1.1-1s0.4-0.9,0.4-1.4v-1.6c-0.2,0.1-0.3,0.2-0.5,0.2
				c-0.2,0.1-0.4,0.1-0.7,0.2c-0.3,0.1-0.5,0.1-0.8,0.2c-0.3,0-0.5,0.1-0.8,0.1c-0.5,0.1-0.9,0.2-1.3,0.4c-0.3,0.2-0.6,0.4-0.8,0.6
				s-0.3,0.6-0.3,0.9c0,0.5,0.2,1,0.6,1.3S196.9,55.1,197.5,55.1z"/>
			<path class="st1" d="M211.6,64.4c-0.6,0-1.2,0-1.8-0.1c-0.6-0.1-1-0.2-1.4-0.4l1.2-3.8c0.8,0.3,1.4,0.3,2,0.3s0.9-0.4,1.2-1
				l0.2-0.5l-5.9-17.2h5.5l3.1,11.8h0.2l3.1-11.8l5.6,0l-6.2,18.1c-0.3,0.9-0.7,1.7-1.3,2.4c-0.5,0.7-1.3,1.2-2.1,1.6
				C214,64.2,212.9,64.4,211.6,64.4z"/>
		</g>
	</g>
	<g>
		<path class="st2" d="M36.1,35.1c0-0.2,0.1-0.3,0.1-0.4c0.1-0.2,0.2-0.3,0.3-0.5c2-3.2,2.9-6.7,2.9-10.4C39.3,9.6,23.8,0,11.1,6.4
			C-2.6,13.2-3.7,31.6,8.2,40c1.3,0.9,2.7,1.7,4.1,2.3l2.1-9C11.2,31.5,9,28.1,9,24.1c0-5.9,4.8-10.6,10.6-10.7
			c5.9,0,10.7,4.9,10.7,10.7c0,3.9-2.2,7.5-5.5,9.3l2.2,8.9c1.7-0.7,3.3-1.6,4.7-2.7c0.5-0.4,0.9-0.5,1.4,0.1c0.5,0.6,1,1.1,1.5,1.7
			c1.4-1.5,2.7-2.8,3.9-4.1C37.7,36.6,36.9,35.9,36.1,35.1z"/>
		<path class="st2" d="M58.8,55.4c-3.8-3.3-10.5-9.5-14.3-12.8c-1.1-1-2.3-2-3.3-2.9c-1.4,1.4-2.8,2.8-4.2,4.2
			c0.2,0.2,0.4,0.5,0.6,0.7c4.1,4.7,11,12.2,15.1,16.8c1.2,1.4,2.7,1.5,4.1,0.2c0.8-0.7,1.5-1.5,2.3-2.3
			C60.3,58,60.2,56.6,58.8,55.4z"/>
	</g>
	<g>
		<g>
			<g>
				<polygon class="st1" points="16.2,34.9 19.5,32.6 22.8,34.9 21.5,38 17.5,38 				"/>
				<polygon class="st1" points="17.8,39.8 21.2,39.8 24.7,55.3 19.5,60.1 14.6,55.5 				"/>
			</g>
		</g>
		<circle class="st1" cx="19.7" cy="23.4" r="6.6"/>
	</g>
</g>
</svg>
