<?xml version="1.0" encoding="utf-8"?>
<!-- Generator: Adobe Illustrator 25.0.0, SVG Export Plug-In . SVG Version: 6.00 Build 0)  -->
<svg version="1.1" id="Layer_1" xmlns="http://www.w3.org/2000/svg" xmlns:xlink="http://www.w3.org/1999/xlink" x="0px" y="0px"
	 viewBox="0 0 241.77 67.95" style="enable-background:new 0 0 241.77 67.95;" xml:space="preserve">
<style type="text/css">
	.st0{fill:#FFFFFF;}
	.st1{font-family:'Inter-Medium';}
	.st2{font-size:30.3823px;}
	.st3{font-family:'Inter-ExtraBold';}
	.st4{fill:#5D5DFF;}
</style>
<g>
	<g>
		<text transform="matrix(1 0 0 1 61.3294 26.2393)"><tspan x="0" y="0" class="st0 st1 st2">Made in</tspan><tspan x="0" y="32" class="st0 st3 st2">Tampa Bay</tspan></text>
	</g>
	<g>
		<path class="st4" d="M36.06,35.14c0.05-0.18,0.07-0.28,0.11-0.36c0.08-0.18,0.17-0.35,0.28-0.52c1.99-3.2,2.88-6.69,2.87-10.44
			C39.28,9.58,23.81,0.03,11.06,6.38C-2.58,13.17-3.69,31.6,8.2,40.04c1.33,0.94,2.7,1.7,4.12,2.28l2.06-8.99
			c-3.18-1.79-5.37-5.19-5.39-9.27c0-5.87,4.78-10.65,10.65-10.66c5.88-0.01,10.74,4.85,10.7,10.7c-0.02,3.89-2.19,7.47-5.55,9.31
			l2.18,8.93c1.68-0.67,3.26-1.57,4.72-2.74c0.53-0.42,0.95-0.47,1.4,0.08c0.47,0.57,0.97,1.1,1.47,1.66
			c1.4-1.46,2.66-2.77,3.94-4.09C37.72,36.57,36.91,35.88,36.06,35.14z"/>
		<path class="st4" d="M58.81,55.37c-3.79-3.31-10.49-9.51-14.29-12.81c-1.13-0.98-2.26-1.96-3.33-2.88
			c-1.43,1.42-2.79,2.77-4.25,4.22c0.18,0.22,0.37,0.48,0.59,0.72c4.06,4.65,11.03,12.2,15.1,16.84c1.25,1.42,2.68,1.49,4.07,0.18
			c0.78-0.74,1.55-1.5,2.29-2.29C60.27,58,60.21,56.58,58.81,55.37z"/>
	</g>
	<g>
		<g>
			<g>
				<polygon class="st0" points="16.24,34.88 19.55,32.61 22.76,34.88 21.54,38.03 17.54,38.03 				"/>
				<polygon class="st0" points="17.81,39.83 21.25,39.83 24.68,55.29 19.55,60.13 14.56,55.47 				"/>
			</g>
		</g>
		<circle class="st0" cx="19.71" cy="23.42" r="6.63"/>
	</g>
</g>
</svg>
