<svg xmlns="http://www.w3.org/2000/svg" xmlns:xlink="http://www.w3.org/1999/xlink" width="150" viewBox="0 0 150 37.5" height="37.5" version="1.0"><defs><g id="b"><path d="M 0.957031 0 L 3.914062 0 L 3.933594 -6.230469 L 3.652344 -11.261719 L 3.773438 -11.261719 L 6.25 0 L 8.726562 0 L 11.222656 -11.261719 L 11.34375 -11.261719 L 11.042969 -6.25 L 11.082031 0 L 14.097656 0 L 14.097656 -13.777344 L 9.484375 -13.777344 L 7.488281 -3.214844 L 5.492188 -13.777344 L 0.957031 -13.777344 Z M 0.957031 0"/></g><g id="c"><path d="M 4.472656 -10.421875 C 2.597656 -10.421875 1.097656 -9.585938 0.640625 -7.769531 L 2.835938 -6.929688 C 3.035156 -7.726562 3.515625 -8.367188 4.414062 -8.367188 C 5.390625 -8.367188 5.769531 -7.808594 5.652344 -6.75 L 5.632812 -6.589844 C 4.351562 -6.371094 3.074219 -6.011719 2.175781 -5.453125 C 1.117188 -4.792969 0.5 -3.875 0.5 -2.476562 C 0.5 -0.839844 1.539062 0.21875 3.15625 0.21875 C 3.894531 0.21875 5.132812 -0.121094 5.570312 -1.457031 L 5.730469 -1.457031 L 5.851562 0 L 8.367188 0 L 8.367188 -6.828125 C 8.367188 -9.40625 6.808594 -10.421875 4.472656 -10.421875 Z M 4.292969 -1.855469 C 3.753906 -1.777344 3.214844 -2.15625 3.214844 -2.835938 C 3.214844 -3.394531 3.574219 -3.835938 4.09375 -4.171875 C 4.492188 -4.453125 5.03125 -4.671875 5.589844 -4.773438 L 5.589844 -2.957031 C 5.3125 -2.394531 4.890625 -1.917969 4.292969 -1.855469 Z M 4.292969 -1.855469"/></g><g id="d"><path d="M 6.390625 -13.777344 L 6.390625 -8.644531 L 6.289062 -8.644531 C 5.929688 -9.726562 5.070312 -10.421875 3.953125 -10.421875 C 1.957031 -10.421875 0.460938 -8.804688 0.460938 -5.113281 C 0.460938 -1.476562 1.9375 0.21875 4.015625 0.21875 C 5.132812 0.21875 6.109375 -0.480469 6.449219 -1.519531 L 6.53125 -1.519531 L 6.648438 0 L 9.304688 0 L 9.304688 -13.777344 Z M 4.953125 -2.214844 C 4.054688 -2.214844 3.414062 -3.113281 3.414062 -5.132812 C 3.414062 -7.089844 4.054688 -7.96875 4.953125 -7.96875 C 5.890625 -7.96875 6.429688 -6.949219 6.429688 -5.132812 C 6.429688 -3.253906 5.890625 -2.214844 4.953125 -2.214844 Z M 4.953125 -2.214844"/></g><g id="e"><path d="M 5.113281 -2.136719 C 3.992188 -2.136719 3.316406 -2.894531 3.316406 -4.433594 L 8.6875 -4.433594 C 8.746094 -4.753906 8.765625 -5.3125 8.765625 -5.609375 C 8.765625 -8.507812 7.507812 -10.421875 4.710938 -10.421875 C 1.738281 -10.421875 0.480469 -8.265625 0.480469 -5.03125 C 0.480469 -1.675781 2.214844 0.199219 4.953125 0.199219 C 6.589844 0.199219 7.90625 -0.398438 8.707031 -2.277344 L 6.667969 -3.136719 C 6.289062 -2.417969 5.769531 -2.136719 5.113281 -2.136719 Z M 4.8125 -8.207031 C 5.890625 -8.207031 6.171875 -7.347656 6.148438 -6.308594 L 3.375 -6.308594 C 3.433594 -7.46875 3.792969 -8.207031 4.8125 -8.207031 Z M 4.8125 -8.207031"/></g><g id="g"><path d="M 1.019531 -11.523438 L 3.933594 -11.523438 L 3.933594 -13.777344 L 1.019531 -13.777344 Z M 1 0 L 3.933594 0 L 3.933594 -10.222656 L 1 -10.222656 Z M 1 0"/></g><g id="h"><path d="M 1 0 L 3.914062 0 L 3.914062 -6.269531 C 3.914062 -7.46875 4.453125 -8.1875 5.3125 -8.1875 C 6.070312 -8.1875 6.488281 -7.726562 6.488281 -6.589844 L 6.488281 0 L 9.40625 0 L 9.40625 -6.890625 C 9.40625 -9.046875 8.226562 -10.421875 6.53125 -10.421875 C 5.292969 -10.421875 4.433594 -9.765625 3.953125 -8.667969 L 3.835938 -8.667969 L 3.695312 -10.222656 L 1 -10.222656 Z M 1 0"/></g><g id="i"><path d="M 2.875 0 L 5.871094 0 L 5.871094 -11.222656 L 8.566406 -11.222656 L 8.566406 -13.777344 L 0.199219 -13.777344 L 0.199219 -11.222656 L 2.875 -11.222656 Z M 2.875 0"/></g><g id="j"><path d="M 1 0 L 3.914062 0 L 3.914062 -6.050781 C 3.914062 -7.207031 4.253906 -7.90625 4.972656 -7.90625 C 5.632812 -7.90625 5.949219 -7.546875 5.949219 -6.46875 L 5.949219 0 L 8.867188 0 L 8.867188 -6.050781 C 8.867188 -7.207031 9.207031 -7.90625 9.925781 -7.90625 C 10.601562 -7.90625 10.941406 -7.507812 10.941406 -6.609375 L 10.941406 0 L 13.859375 0 L 13.859375 -7.269531 C 13.859375 -9.425781 12.859375 -10.421875 11.28125 -10.421875 C 9.925781 -10.421875 9.125 -9.785156 8.546875 -8.546875 L 8.488281 -8.546875 C 8.207031 -10.003906 7.429688 -10.421875 6.269531 -10.421875 C 5.132812 -10.421875 4.351562 -9.746094 3.914062 -8.707031 L 3.835938 -8.707031 L 3.695312 -10.222656 L 1 -10.222656 Z M 1 0"/></g><g id="k"><path d="M 1 3.554688 L 3.855469 3.554688 L 3.855469 -1.519531 L 3.953125 -1.519531 C 4.375 -0.398438 5.25 0.21875 6.648438 0.21875 C 8.488281 0.21875 9.824219 -1.519531 9.824219 -5.113281 C 9.824219 -8.6875 8.507812 -10.421875 6.371094 -10.421875 C 5.132812 -10.421875 4.132812 -9.664062 3.753906 -8.507812 L 3.652344 -8.507812 L 3.535156 -10.222656 L 1 -10.222656 Z M 5.371094 -2.195312 C 4.414062 -2.195312 3.875 -3.253906 3.875 -5.152344 C 3.875 -6.988281 4.414062 -8.007812 5.371094 -8.007812 C 6.332031 -8.007812 6.871094 -7.128906 6.871094 -5.152344 C 6.871094 -3.113281 6.332031 -2.195312 5.371094 -2.195312 Z M 5.371094 -2.195312"/></g><clipPath id="a"><path d="M 2.96875 6.957031 L 25.914062 6.957031 L 25.914062 29.898438 L 2.96875 29.898438 Z M 2.96875 6.957031"/></clipPath></defs><g clip-path="url(#a)"><path fill="#FFF" d="M 14.441406 6.957031 C 8.105469 6.957031 2.96875 12.09375 2.96875 18.429688 C 2.96875 24.761719 8.105469 29.898438 14.441406 29.898438 C 16.316406 29.898438 18.082031 29.441406 19.644531 28.644531 C 18.835938 24.699219 17.113281 21.015625 14.539062 17.867188 C 14.351562 17.945312 14.21875 18 14.21875 18 C 12.269531 18.808594 11.339844 21.050781 12.148438 22.996094 L 10.378906 23.730469 C 9.210938 20.902344 10.480469 17.671875 13.207031 16.367188 C 13.171875 16.328125 13.136719 16.292969 13.097656 16.253906 C 10.117188 16.453125 7.75 18.9375 7.75 21.96875 L 5.835938 21.96875 C 5.835938 18.636719 7.972656 15.808594 10.949219 14.761719 C 10.117188 14.527344 9.226562 14.566406 8.425781 14.898438 C 7.976562 15.085938 7.554688 15.359375 7.1875 15.726562 L 5.835938 14.371094 C 7.96875 12.242188 11.34375 12.160156 13.597656 14.085938 C 14.890625 11.324219 18.136719 10.039062 20.980469 11.21875 L 20.25 12.984375 C 19.773438 12.789062 19.277344 12.695312 18.789062 12.695312 C 17.289062 12.695312 15.863281 13.582031 15.25 15.054688 C 16.378906 13.929688 18.035156 13.652344 19.425781 14.226562 C 19.875 14.414062 20.296875 14.6875 20.660156 15.054688 L 19.308594 16.40625 C 19.128906 16.230469 18.921875 16.089844 18.691406 15.992188 C 18.453125 15.894531 18.203125 15.84375 17.953125 15.84375 C 17.457031 15.84375 16.96875 16.039062 16.605469 16.40625 L 16.164062 16.84375 C 18.636719 19.933594 20.429688 23.582031 21.359375 27.5625 C 24.121094 25.46875 25.914062 22.160156 25.914062 18.429688 C 25.914062 12.09375 20.777344 6.957031 14.441406 6.957031 Z M 14.441406 6.957031"/></g><g fill="#FFF"><use x="29.765" y="25.285" xmlns:xlink="http://www.w3.org/1999/xlink" xlink:href="#b" xlink:type="simple" xlink:actuate="onLoad" xlink:show="embed"/></g><g fill="#FFF"><use x="44.795" y="25.285" xmlns:xlink="http://www.w3.org/1999/xlink" xlink:href="#c" xlink:type="simple" xlink:actuate="onLoad" xlink:show="embed"/></g><g fill="#FFF"><use x="54.077" y="25.285" xmlns:xlink="http://www.w3.org/1999/xlink" xlink:href="#d" xlink:type="simple" xlink:actuate="onLoad" xlink:show="embed"/></g><g fill="#FFF"><use x="64.376" y="25.285" xmlns:xlink="http://www.w3.org/1999/xlink" xlink:href="#e" xlink:type="simple" xlink:actuate="onLoad" xlink:show="embed"/></g><g fill="#FFF"><use x="73.638" y="25.285" xmlns:xlink="http://www.w3.org/1999/xlink" xlink:href="#f" xlink:type="simple" xlink:actuate="onLoad" xlink:show="embed"/></g><g fill="#FFF"><use x="77.45" y="25.285" xmlns:xlink="http://www.w3.org/1999/xlink" xlink:href="#g" xlink:type="simple" xlink:actuate="onLoad" xlink:show="embed"/></g><g fill="#FFF"><use x="82.361" y="25.285" xmlns:xlink="http://www.w3.org/1999/xlink" xlink:href="#h" xlink:type="simple" xlink:actuate="onLoad" xlink:show="embed"/></g><g fill="#FFF"><use x="92.68" y="25.285" xmlns:xlink="http://www.w3.org/1999/xlink" xlink:href="#f" xlink:type="simple" xlink:actuate="onLoad" xlink:show="embed"/></g><g fill="#FFF"><use x="96.493" y="25.285" xmlns:xlink="http://www.w3.org/1999/xlink" xlink:href="#i" xlink:type="simple" xlink:actuate="onLoad" xlink:show="embed"/></g><g fill="#FFF"><use x="105.255" y="25.285" xmlns:xlink="http://www.w3.org/1999/xlink" xlink:href="#c" xlink:type="simple" xlink:actuate="onLoad" xlink:show="embed"/></g><g fill="#FFF"><use x="114.537" y="25.285" xmlns:xlink="http://www.w3.org/1999/xlink" xlink:href="#j" xlink:type="simple" xlink:actuate="onLoad" xlink:show="embed"/></g><g fill="#FFF"><use x="129.307" y="25.285" xmlns:xlink="http://www.w3.org/1999/xlink" xlink:href="#k" xlink:type="simple" xlink:actuate="onLoad" xlink:show="embed"/></g><g fill="#FFF"><use x="139.607" y="25.285" xmlns:xlink="http://www.w3.org/1999/xlink" xlink:href="#c" xlink:type="simple" xlink:actuate="onLoad" xlink:show="embed"/></g></svg>