<svg version="1.2" baseProfile="tiny-ps" xmlns="http://www.w3.org/2000/svg" viewBox="0 0 148 38" width="148" height="38">
	<title>made_in_tampa_logo-svg</title>
	<defs>
		<clipPath clipPathUnits="userSpaceOnUse" id="cp1">
			<path d="m0.97 6.96h22.95v22.94h-22.95v-22.94z" />
		</clipPath>
	</defs>
	<style>
		tspan { white-space:pre }
		.s0 { fill: #ffffff } 
	</style>
	<g id="Clip-Path" clip-path="url(#cp1)">
		<g id="Layer">
			<path id="Layer" class="s0" d="m23.91 18.43c0 3.73-1.79 7.04-4.55 9.13c-0.93-3.98-2.72-7.63-5.2-10.72l0.44-0.44c0.36-0.37 0.85-0.56 1.35-0.56c0.25 0 0.5 0.05 0.74 0.15c0.23 0.1 0.44 0.24 0.62 0.41l1.35-1.35c-0.36-0.37-0.79-0.64-1.23-0.83c-1.39-0.57-3.05-0.3-4.18 0.83c0.61-1.47 2.04-2.36 3.54-2.36c0.49 0 0.98 0.09 1.46 0.29l0.73-1.77c-2.84-1.18-6.09 0.11-7.38 2.87c-2.25-1.93-5.63-1.84-7.76 0.29l1.35 1.36c0.37-0.37 0.79-0.64 1.24-0.83c0.8-0.33 1.69-0.37 2.52-0.14c-2.98 1.05-5.11 3.88-5.11 7.21h1.91c0-3.03 2.37-5.52 5.35-5.71c0.04 0.04 0.07 0.07 0.11 0.11c-2.73 1.3-4 4.54-2.83 7.36l1.77-0.73c-0.81-1.95 0.12-4.19 2.07-5c0 0 0.13-0.05 0.32-0.13c2.57 3.15 4.3 6.83 5.11 10.78c-1.56 0.8-3.33 1.25-5.2 1.25c-6.34 0-11.47-5.14-11.47-11.47c0-6.34 5.14-11.47 11.47-11.47c6.34 0 11.47 5.14 11.47 11.47z" />
		</g>
	</g>
	<g id="Layer">
		<g id="b">
			<path id="Layer" class="s0" d="m28.72 11.51h4.54l2 10.56l2-10.56h4.61v13.78h-3.02l-0.04-6.25l0.3-5.01h-0.12l-2.5 11.26h-2.48l-2.48-11.26h-0.12l0.28 5.03l-0.02 6.23h-2.96v-13.78z" />
		</g>
	</g>
	<g id="Layer">
		<g id="c">
			<path id="Layer" fill-rule="evenodd" class="s0" d="m51.16 18.46v6.83h-2.52l-0.12-1.46h-0.16c-0.44 1.34-1.68 1.68-2.41 1.68c-1.62 0-2.66-1.06-2.66-2.7c0-1.4 0.62-2.32 1.68-2.98c0.9-0.56 2.18-0.92 3.46-1.14l0.02-0.16c0.12-1.06-0.26-1.62-1.24-1.62c-0.9 0-1.38 0.64-1.58 1.44l-2.2-0.84c0.46-1.82 1.96-2.65 3.83-2.65c2.34 0 3.89 1.02 3.89 3.59zm-2.78 3.87v-1.82c-0.56 0.1-1.1 0.32-1.5 0.6c-0.52 0.34-0.88 0.78-0.88 1.34c0 0.68 0.54 1.06 1.08 0.98c0.6-0.06 1.02-0.54 1.3-1.1z" />
		</g>
	</g>
	<g id="Layer">
		<g id="d">
			<path id="Layer" fill-rule="evenodd" class="s0" d="m61.38 11.51v13.78h-2.66l-0.12-1.52h-0.08c-0.34 1.04-1.32 1.74-2.43 1.74c-2.08 0-3.55-1.7-3.55-5.33c0-3.69 1.5-5.31 3.49-5.31c1.12 0 1.98 0.7 2.34 1.78h0.1v-5.13h2.91zm-2.88 8.64c0-1.82-0.54-2.84-1.48-2.84c-0.9 0-1.54 0.88-1.54 2.84c0 2.02 0.64 2.92 1.54 2.92c0.94 0 1.48-1.04 1.48-2.92z" />
		</g>
	</g>
	<g id="Layer">
		<g id="e">
			<path id="Layer" fill-rule="evenodd" class="s0" d="m69.04 22.15l2.04 0.86c-0.8 1.88-2.12 2.48-3.75 2.48c-2.74 0-4.47-1.88-4.47-5.23c0-3.23 1.26-5.39 4.23-5.39c2.8 0 4.05 1.91 4.05 4.81c0 0.3-0.02 0.86-0.08 1.18h-5.37c0 1.54 0.68 2.3 1.8 2.3c0.66 0 1.18-0.28 1.55-1zm-3.29-3.17h2.77c0.02-1.04-0.26-1.9-1.34-1.9c-1.02 0-1.38 0.74-1.44 1.9z" />
		</g>
	</g>
	<g id="Layer">
	</g>
	<g id="Layer">
		<g id="g">
			<path id="Layer" class="s0" d="m76.47 11.51h2.91v2.25h-2.91v-2.25zm-0.02 3.55h2.93v10.22h-2.93v-10.22z" />
		</g>
	</g>
	<g id="Layer">
		<g id="h">
			<path id="Layer" class="s0" d="m81.36 15.06h2.7l0.14 1.55h0.12c0.48-1.1 1.34-1.75 2.58-1.75c1.7 0 2.88 1.38 2.88 3.53v6.89h-2.92v-6.59c0-1.14-0.42-1.6-1.18-1.6c-0.86 0-1.4 0.72-1.4 1.92v6.27h-2.91v-10.22z" />
		</g>
	</g>
	<g id="Layer">
	</g>
	<g id="Layer">
		<g id="i">
			<path id="Layer" class="s0" d="m97.37 14.06h-2.68v-2.55h8.37v2.55h-2.7v11.22h-3v-11.22z" />
		</g>
	</g>
	<g id="Layer">
		<g id="c">
			<path id="Layer" fill-rule="evenodd" class="s0" d="m111.62 18.46v6.83h-2.52l-0.12-1.46h-0.16c-0.44 1.34-1.68 1.68-2.41 1.68c-1.62 0-2.66-1.06-2.66-2.7c0-1.4 0.62-2.32 1.68-2.98c0.9-0.56 2.18-0.92 3.46-1.14l0.02-0.16c0.12-1.06-0.26-1.62-1.24-1.62c-0.9 0-1.38 0.64-1.58 1.44l-2.2-0.84c0.46-1.82 1.96-2.65 3.83-2.65c2.34 0 3.89 1.02 3.89 3.59zm-2.78 3.87v-1.82c-0.56 0.1-1.1 0.32-1.5 0.6c-0.52 0.34-0.88 0.78-0.88 1.34c0 0.68 0.54 1.06 1.08 0.98c0.6-0.06 1.02-0.54 1.3-1.1z" />
		</g>
	</g>
	<g id="Layer">
		<g id="j">
			<path id="Layer" class="s0" d="m113.54 15.06h2.7l0.14 1.52h0.08c0.44-1.04 1.22-1.71 2.36-1.71c1.16 0 1.94 0.42 2.22 1.88h0.06c0.58-1.24 1.38-1.88 2.73-1.88c1.58 0 2.58 1 2.58 3.15v7.27h-2.92v-6.61c0-0.9-0.34-1.3-1.02-1.3c-0.72 0-1.06 0.7-1.06 1.86v6.05h-2.92v-6.47c0-1.08-0.32-1.44-0.98-1.44c-0.72 0-1.06 0.7-1.06 1.86v6.05h-2.91v-10.22z" />
		</g>
	</g>
	<g id="Layer">
		<g id="k">
			<path id="Layer" fill-rule="evenodd" class="s0" d="m128.31 15.06h2.54l0.12 1.71h0.1c0.38-1.16 1.38-1.91 2.62-1.91c2.14 0 3.45 1.73 3.45 5.31c0 3.59-1.34 5.33-3.18 5.33c-1.4 0-2.27-0.62-2.7-1.74h-0.1v5.07h-2.86v-13.78zm5.87 5.07c0-1.98-0.54-2.86-1.5-2.86c-0.96 0-1.5 1.02-1.5 2.86c0 1.9 0.54 2.96 1.5 2.96c0.96 0 1.5-0.92 1.5-2.96z" />
		</g>
	</g>
	<g id="Layer">
		<g id="c">
			<path id="Layer" fill-rule="evenodd" class="s0" d="m145.97 18.46v6.83h-2.52l-0.12-1.46h-0.16c-0.44 1.34-1.68 1.68-2.41 1.68c-1.62 0-2.66-1.06-2.66-2.7c0-1.4 0.62-2.32 1.68-2.98c0.9-0.56 2.18-0.92 3.46-1.14l0.02-0.16c0.12-1.06-0.26-1.62-1.24-1.62c-0.9 0-1.38 0.64-1.58 1.44l-2.2-0.84c0.46-1.82 1.96-2.65 3.83-2.65c2.34 0 3.89 1.02 3.89 3.59zm-2.78 3.87v-1.82c-0.56 0.1-1.1 0.32-1.5 0.6c-0.52 0.34-0.88 0.78-0.88 1.34c0 0.68 0.54 1.06 1.08 0.98c0.6-0.06 1.02-0.54 1.3-1.1z" />
		</g>
	</g>
</svg>