<svg xmlns="http://www.w3.org/2000/svg" xmlns:xlink="http://www.w3.org/1999/xlink" width="200" zoomAndPan="magnify" viewBox="0 0 150 37.5" height="50" preserveAspectRatio="xMidYMid meet" version="1.0"><defs><g/><clipPath id="id1"><path d="M 1 22 L 6 22 L 6 26.925781 L 1 26.925781 Z M 1 22 " clip-rule="nonzero"/></clipPath><clipPath id="id2"><path d="M 5 22 L 10 22 L 10 26.925781 L 5 26.925781 Z M 5 22 " clip-rule="nonzero"/></clipPath><clipPath id="id3"><path d="M 9 22 L 14 22 L 14 26.925781 L 9 26.925781 Z M 9 22 " clip-rule="nonzero"/></clipPath><clipPath id="id4"><path d="M 14 10 L 18.75 10 L 18.75 14 L 14 14 Z M 14 10 " clip-rule="nonzero"/></clipPath><clipPath id="id5"><path d="M 13 16 L 18.75 16 L 18.75 21 L 13 21 Z M 13 16 " clip-rule="nonzero"/></clipPath><clipPath id="id6"><path d="M 0.988281 14 L 6 14 L 6 20 L 0.988281 20 Z M 0.988281 14 " clip-rule="nonzero"/></clipPath><clipPath id="id7"><path d="M 0.988281 18 L 6 18 L 6 24 L 0.988281 24 Z M 0.988281 18 " clip-rule="nonzero"/></clipPath><clipPath id="id8"><path d="M 0.988281 22 L 6 22 L 6 26.925781 L 0.988281 26.925781 Z M 0.988281 22 " clip-rule="nonzero"/></clipPath><clipPath id="id9"><path d="M 4 22 L 10 22 L 10 26.925781 L 4 26.925781 Z M 4 22 " clip-rule="nonzero"/></clipPath><clipPath id="id10"><path d="M 8 22 L 14 22 L 14 26.925781 L 8 26.925781 Z M 8 22 " clip-rule="nonzero"/></clipPath><clipPath id="id11"><path d="M 14 9.902344 L 18.75 9.902344 L 18.75 15 L 14 15 Z M 14 9.902344 " clip-rule="nonzero"/></clipPath><clipPath id="id12"><path d="M 13 15 L 18.75 15 L 18.75 22 L 13 22 Z M 13 15 " clip-rule="nonzero"/></clipPath></defs><path fill="rgb(100%, 100%, 100%)" d="M 1.488281 14.765625 L 5.433594 14.765625 L 5.433594 18.65625 L 1.488281 18.65625 Z M 1.488281 14.765625 " fill-opacity="1" fill-rule="nonzero"/><path fill="rgb(100%, 100%, 100%)" d="M 1.488281 18.65625 L 5.433594 18.65625 L 5.433594 22.550781 L 1.488281 22.550781 Z M 1.488281 18.65625 " fill-opacity="1" fill-rule="nonzero"/><path fill="rgb(100%, 100%, 100%)" d="M 5.433594 18.65625 L 9.375 18.65625 L 9.375 22.550781 L 5.433594 22.550781 Z M 5.433594 18.65625 " fill-opacity="1" fill-rule="nonzero"/><g clip-path="url(#id1)"><path fill="rgb(100%, 100%, 100%)" d="M 1.488281 22.550781 L 5.433594 22.550781 L 5.433594 26.441406 L 1.488281 26.441406 Z M 1.488281 22.550781 " fill-opacity="1" fill-rule="nonzero"/></g><g clip-path="url(#id2)"><path fill="rgb(100%, 100%, 100%)" d="M 5.433594 22.550781 L 9.375 22.550781 L 9.375 26.441406 L 5.433594 26.441406 Z M 5.433594 22.550781 " fill-opacity="1" fill-rule="nonzero"/></g><g clip-path="url(#id3)"><path fill="rgb(100%, 100%, 100%)" d="M 9.375 22.550781 L 13.320312 22.550781 L 13.320312 26.441406 L 9.375 26.441406 Z M 9.375 22.550781 " fill-opacity="1" fill-rule="nonzero"/></g><g clip-path="url(#id4)"><path fill="rgb(100%, 100%, 100%)" d="M 14.796875 10.390625 L 18.25 10.390625 L 18.25 13.792969 L 14.796875 13.792969 Z M 14.796875 10.390625 " fill-opacity="1" fill-rule="nonzero"/></g><g clip-path="url(#id5)"><path fill="rgb(100%, 100%, 100%)" d="M 18.074219 19.660156 L 14.882812 20.601562 L 13.929688 17.453125 L 17.117188 16.511719 Z M 18.074219 19.660156 " fill-opacity="1" fill-rule="nonzero"/></g><path fill="rgb(100%, 100%, 100%)" d="M 11.886719 13 L 9.921875 15.558594 L 7.328125 13.621094 L 9.292969 11.0625 Z M 11.886719 13 " fill-opacity="1" fill-rule="nonzero"/><g clip-path="url(#id6)"><path fill="rgb(100%, 100%, 100%)" d="M 5.925781 19.144531 L 0.996094 19.144531 L 0.996094 14.28125 L 5.925781 14.28125 Z M 1.980469 18.171875 L 4.9375 18.171875 L 4.9375 15.253906 L 1.980469 15.253906 Z M 1.980469 18.171875 " fill-opacity="1" fill-rule="nonzero"/></g><g clip-path="url(#id7)"><path fill="rgb(100%, 100%, 100%)" d="M 5.925781 23.035156 L 0.996094 23.035156 L 0.996094 18.171875 L 5.925781 18.171875 Z M 1.980469 22.0625 L 4.9375 22.0625 L 4.9375 19.144531 L 1.980469 19.144531 Z M 1.980469 22.0625 " fill-opacity="1" fill-rule="nonzero"/></g><path fill="rgb(100%, 100%, 100%)" d="M 9.867188 23.035156 L 4.9375 23.035156 L 4.9375 18.171875 L 9.867188 18.171875 Z M 5.925781 22.0625 L 8.882812 22.0625 L 8.882812 19.144531 L 5.925781 19.144531 Z M 5.925781 22.0625 " fill-opacity="1" fill-rule="nonzero"/><g clip-path="url(#id8)"><path fill="rgb(100%, 100%, 100%)" d="M 5.925781 26.925781 L 0.996094 26.925781 L 0.996094 22.0625 L 5.925781 22.0625 Z M 1.980469 25.953125 L 4.9375 25.953125 L 4.9375 23.035156 L 1.980469 23.035156 Z M 1.980469 25.953125 " fill-opacity="1" fill-rule="nonzero"/></g><g clip-path="url(#id9)"><path fill="rgb(100%, 100%, 100%)" d="M 9.867188 26.925781 L 4.9375 26.925781 L 4.9375 22.0625 L 9.867188 22.0625 Z M 5.925781 25.953125 L 8.882812 25.953125 L 8.882812 23.035156 L 5.925781 23.035156 Z M 5.925781 25.953125 " fill-opacity="1" fill-rule="nonzero"/></g><g clip-path="url(#id10)"><path fill="rgb(100%, 100%, 100%)" d="M 13.8125 26.925781 L 8.882812 26.925781 L 8.882812 22.0625 L 13.8125 22.0625 Z M 9.867188 25.953125 L 12.824219 25.953125 L 12.824219 23.035156 L 9.867188 23.035156 Z M 9.867188 25.953125 " fill-opacity="1" fill-rule="nonzero"/></g><g clip-path="url(#id11)"><path fill="rgb(100%, 100%, 100%)" d="M 18.742188 14.28125 L 14.304688 14.28125 L 14.304688 9.902344 L 18.742188 9.902344 Z M 15.289062 13.308594 L 17.753906 13.308594 L 17.753906 10.875 L 15.289062 10.875 Z M 15.289062 13.308594 " fill-opacity="1" fill-rule="nonzero"/></g><g clip-path="url(#id12)"><path fill="rgb(100%, 100%, 100%)" d="M 14.550781 21.210938 L 13.3125 17.128906 L 17.449219 15.910156 L 18.6875 19.988281 Z M 14.542969 17.78125 L 15.214844 19.996094 L 17.457031 19.335938 L 16.785156 17.121094 Z M 14.542969 17.78125 " fill-opacity="1" fill-rule="nonzero"/></g><path fill="rgb(100%, 100%, 100%)" d="M 10.015625 16.242188 L 6.636719 13.714844 L 9.195312 10.382812 L 12.574219 12.90625 Z M 8.019531 13.527344 L 9.824219 14.878906 L 11.195312 13.09375 L 9.386719 11.746094 Z M 8.019531 13.527344 " fill-opacity="1" fill-rule="nonzero"/><g fill="rgb(100%, 100%, 100%)" fill-opacity="1"><g transform="translate(23.856791, 24.322163)"><g><path d="M 12.566406 0 L 12.566406 -10.625 L 9.382812 -10.625 L 6.800781 -3.980469 L 4.222656 -10.625 L 1.050781 -10.625 L 1.050781 0 L 3.3125 0 L 3.3125 -7.660156 L 6.308594 0 L 7.296875 0 L 10.289062 -7.660156 L 10.289062 0 Z M 12.566406 0 "/></g></g></g><g fill="rgb(100%, 100%, 100%)" fill-opacity="1"><g transform="translate(37.481435, 24.322163)"><g><path d="M 10.957031 0 L 6.863281 -10.625 L 4.03125 -10.625 L -0.0625 0 L 2.5 0 L 3.167969 -1.800781 L 7.726562 -1.800781 L 8.394531 0 Z M 7.105469 -3.789062 L 3.789062 -3.789062 L 5.449219 -8.363281 Z M 7.105469 -3.789062 "/></g></g></g><g fill="rgb(100%, 100%, 100%)" fill-opacity="1"><g transform="translate(48.384343, 24.322163)"><g><path d="M 5.257812 0 C 8.570312 0 10.878906 -2.101562 10.878906 -5.320312 C 10.878906 -8.503906 8.570312 -10.625 5.242188 -10.625 L 1.050781 -10.625 L 1.050781 0 Z M 5.242188 -1.992188 L 3.3125 -1.992188 L 3.3125 -8.632812 L 5.257812 -8.632812 C 7.421875 -8.632812 8.570312 -7.183594 8.570312 -5.320312 C 8.570312 -3.503906 7.34375 -1.992188 5.242188 -1.992188 Z M 5.242188 -1.992188 "/></g></g></g><g fill="rgb(100%, 100%, 100%)" fill-opacity="1"><g transform="translate(59.828413, 24.322163)"><g><path d="M 8.570312 0 L 8.570312 -1.992188 L 3.3125 -1.992188 L 3.3125 -4.410156 L 8.457031 -4.410156 L 8.457031 -6.402344 L 3.3125 -6.402344 L 3.3125 -8.632812 L 8.570312 -8.632812 L 8.570312 -10.625 L 1.050781 -10.625 L 1.050781 0 Z M 8.570312 0 "/></g></g></g><g fill="rgb(100%, 100%, 100%)" fill-opacity="1"><g transform="translate(69.123732, 24.322163)"><g/></g></g><g fill="rgb(100%, 100%, 100%)" fill-opacity="1"><g transform="translate(73.230235, 24.322163)"><g><path d="M 3.3125 0 L 3.3125 -10.625 L 1.050781 -10.625 L 1.050781 0 Z M 3.3125 0 "/></g></g></g><g fill="rgb(100%, 100%, 100%)" fill-opacity="1"><g transform="translate(77.607323, 24.322163)"><g><path d="M 10.558594 0 L 10.558594 -10.625 L 8.296875 -10.625 L 8.296875 -3.949219 L 3.375 -10.625 L 1.050781 -10.625 L 1.050781 0 L 3.3125 0 L 3.3125 -6.929688 L 8.378906 0 Z M 10.558594 0 "/></g></g></g><g fill="rgb(100%, 100%, 100%)" fill-opacity="1"><g transform="translate(89.226482, 24.322163)"><g/></g></g><g fill="rgb(100%, 100%, 100%)" fill-opacity="1"><g transform="translate(93.332988, 24.322163)"><g><path d="M 5.78125 0 L 5.78125 -8.632812 L 8.871094 -8.632812 L 8.871094 -10.625 L 0.398438 -10.625 L 0.398438 -8.632812 L 3.503906 -8.632812 L 3.503906 0 Z M 5.78125 0 "/></g></g></g><g fill="rgb(100%, 100%, 100%)" fill-opacity="1"><g transform="translate(102.612394, 24.322163)"><g><path d="M 10.957031 0 L 6.863281 -10.625 L 4.03125 -10.625 L -0.0625 0 L 2.5 0 L 3.167969 -1.800781 L 7.726562 -1.800781 L 8.394531 0 Z M 7.105469 -3.789062 L 3.789062 -3.789062 L 5.449219 -8.363281 Z M 7.105469 -3.789062 "/></g></g></g><g fill="rgb(100%, 100%, 100%)" fill-opacity="1"><g transform="translate(113.515304, 24.322163)"><g><path d="M 12.566406 0 L 12.566406 -10.625 L 9.382812 -10.625 L 6.800781 -3.980469 L 4.222656 -10.625 L 1.050781 -10.625 L 1.050781 0 L 3.3125 0 L 3.3125 -7.660156 L 6.308594 0 L 7.296875 0 L 10.289062 -7.660156 L 10.289062 0 Z M 12.566406 0 "/></g></g></g><g fill="rgb(100%, 100%, 100%)" fill-opacity="1"><g transform="translate(127.139943, 24.322163)"><g><path d="M 3.3125 0 L 3.3125 -3.789062 L 6.019531 -3.789062 C 8.316406 -3.789062 9.589844 -5.351562 9.589844 -7.199219 C 9.589844 -9.0625 8.332031 -10.625 6.019531 -10.625 L 1.050781 -10.625 L 1.050781 0 Z M 5.703125 -5.78125 L 3.3125 -5.78125 L 3.3125 -8.632812 L 5.703125 -8.632812 C 6.59375 -8.632812 7.277344 -8.089844 7.277344 -7.199219 C 7.277344 -6.324219 6.59375 -5.78125 5.703125 -5.78125 Z M 5.703125 -5.78125 "/></g></g></g><g fill="rgb(100%, 100%, 100%)" fill-opacity="1"><g transform="translate(137.103761, 24.322163)"><g><path d="M 10.957031 0 L 6.863281 -10.625 L 4.03125 -10.625 L -0.0625 0 L 2.5 0 L 3.167969 -1.800781 L 7.726562 -1.800781 L 8.394531 0 Z M 7.105469 -3.789062 L 3.789062 -3.789062 L 5.449219 -8.363281 Z M 7.105469 -3.789062 "/></g></g></g></svg>