<svg xmlns="http://www.w3.org/2000/svg" xmlns:xlink="http://www.w3.org/1999/xlink" width="200" zoomAndPan="magnify" viewBox="0 0 150 37.5" height="50" preserveAspectRatio="xMidYMid meet" version="1.0"><defs><g/><clipPath id="id1"><path d="M 1 21 L 8 21 L 8 28.265625 L 1 28.265625 Z M 1 21 " clip-rule="nonzero"/></clipPath><clipPath id="id2"><path d="M 6 21 L 14 21 L 14 28.265625 L 6 28.265625 Z M 6 21 " clip-rule="nonzero"/></clipPath><clipPath id="id3"><path d="M 11 21 L 19 21 L 19 28.265625 L 11 28.265625 Z M 11 21 " clip-rule="nonzero"/></clipPath><clipPath id="id4"><path d="M 19 4.582031 L 25.410156 4.582031 L 25.410156 11 L 19 11 Z M 19 4.582031 " clip-rule="nonzero"/></clipPath><clipPath id="id5"><path d="M 17 12 L 25.410156 12 L 25.410156 21 L 17 21 Z M 17 12 " clip-rule="nonzero"/></clipPath><clipPath id="id6"><path d="M 139 14 L 149.011719 14 L 149.011719 25 L 139 25 Z M 139 14 " clip-rule="nonzero"/></clipPath></defs><path fill="rgb(100%, 100%, 100%)" d="M 1.679688 11.347656 L 7.101562 11.347656 L 7.101562 16.761719 L 1.679688 16.761719 Z M 1.679688 11.347656 " fill-opacity="1" fill-rule="nonzero"/><path fill="rgb(100%, 100%, 100%)" d="M 1.679688 16.761719 L 7.101562 16.761719 L 7.101562 22.175781 L 1.679688 22.175781 Z M 1.679688 16.761719 " fill-opacity="1" fill-rule="nonzero"/><path fill="rgb(100%, 100%, 100%)" d="M 7.101562 16.761719 L 12.519531 16.761719 L 12.519531 22.175781 L 7.101562 22.175781 Z M 7.101562 16.761719 " fill-opacity="1" fill-rule="nonzero"/><path fill="rgb(100%, 100%, 100%)" d="M 1.679688 22.175781 L 7.101562 22.175781 L 7.101562 27.589844 L 1.679688 27.589844 Z M 1.679688 22.175781 " fill-opacity="1" fill-rule="nonzero"/><path fill="rgb(100%, 100%, 100%)" d="M 7.101562 22.175781 L 12.519531 22.175781 L 12.519531 27.589844 L 7.101562 27.589844 Z M 7.101562 22.175781 " fill-opacity="1" fill-rule="nonzero"/><path fill="rgb(100%, 100%, 100%)" d="M 12.519531 22.175781 L 17.941406 22.175781 L 17.941406 27.589844 L 12.519531 27.589844 Z M 12.519531 22.175781 " fill-opacity="1" fill-rule="nonzero"/><path fill="rgb(100%, 100%, 100%)" d="M 19.976562 5.257812 L 24.71875 5.257812 L 24.71875 9.996094 L 19.976562 9.996094 Z M 19.976562 5.257812 " fill-opacity="1" fill-rule="nonzero"/><path fill="rgb(100%, 100%, 100%)" d="M 24.476562 18.15625 L 20.09375 19.464844 L 18.78125 15.085938 L 23.167969 13.777344 Z M 24.476562 18.15625 " fill-opacity="1" fill-rule="nonzero"/><path fill="rgb(100%, 100%, 100%)" d="M 15.972656 8.890625 L 13.269531 12.453125 L 9.707031 9.753906 L 12.40625 6.195312 Z M 15.972656 8.890625 " fill-opacity="1" fill-rule="nonzero"/><path fill="rgb(100%, 100%, 100%)" d="M 7.777344 17.441406 L 1 17.441406 L 1 10.671875 L 7.777344 10.671875 Z M 2.355469 16.085938 L 6.421875 16.085938 L 6.421875 12.027344 L 2.355469 12.027344 Z M 2.355469 16.085938 " fill-opacity="1" fill-rule="nonzero"/><path fill="rgb(100%, 100%, 100%)" d="M 7.777344 22.851562 L 1 22.851562 L 1 16.085938 L 7.777344 16.085938 Z M 2.355469 21.5 L 6.421875 21.5 L 6.421875 17.441406 L 2.355469 17.441406 Z M 2.355469 21.5 " fill-opacity="1" fill-rule="nonzero"/><path fill="rgb(100%, 100%, 100%)" d="M 13.199219 22.851562 L 6.421875 22.851562 L 6.421875 16.085938 L 13.199219 16.085938 Z M 7.777344 21.5 L 11.84375 21.5 L 11.84375 17.441406 L 7.777344 17.441406 Z M 7.777344 21.5 " fill-opacity="1" fill-rule="nonzero"/><g clip-path="url(#id1)"><path fill="rgb(100%, 100%, 100%)" d="M 7.777344 28.265625 L 1 28.265625 L 1 21.5 L 7.777344 21.5 Z M 2.355469 26.914062 L 6.421875 26.914062 L 6.421875 22.851562 L 2.355469 22.851562 Z M 2.355469 26.914062 " fill-opacity="1" fill-rule="nonzero"/></g><g clip-path="url(#id2)"><path fill="rgb(100%, 100%, 100%)" d="M 13.199219 28.265625 L 6.421875 28.265625 L 6.421875 21.5 L 13.199219 21.5 Z M 7.777344 26.914062 L 11.84375 26.914062 L 11.84375 22.851562 L 7.777344 22.851562 Z M 7.777344 26.914062 " fill-opacity="1" fill-rule="nonzero"/></g><g clip-path="url(#id3)"><path fill="rgb(100%, 100%, 100%)" d="M 18.621094 28.265625 L 11.84375 28.265625 L 11.84375 21.5 L 18.621094 21.5 Z M 13.199219 26.914062 L 17.265625 26.914062 L 17.265625 22.851562 L 13.199219 22.851562 Z M 13.199219 26.914062 " fill-opacity="1" fill-rule="nonzero"/></g><g clip-path="url(#id4)"><path fill="rgb(100%, 100%, 100%)" d="M 25.398438 10.671875 L 19.296875 10.671875 L 19.296875 4.582031 L 25.398438 4.582031 Z M 20.652344 9.320312 L 24.042969 9.320312 L 24.042969 5.9375 L 20.652344 5.9375 Z M 20.652344 9.320312 " fill-opacity="1" fill-rule="nonzero"/></g><g clip-path="url(#id5)"><path fill="rgb(100%, 100%, 100%)" d="M 19.636719 20.3125 L 17.9375 14.636719 L 23.621094 12.9375 L 25.320312 18.613281 Z M 19.625 15.542969 L 20.546875 18.628906 L 23.632812 17.707031 L 22.710938 14.621094 Z M 19.625 15.542969 " fill-opacity="1" fill-rule="nonzero"/></g><path fill="rgb(100%, 100%, 100%)" d="M 13.402344 13.398438 L 8.757812 9.886719 L 12.273438 5.25 L 16.921875 8.761719 Z M 10.65625 9.625 L 13.140625 11.503906 L 15.019531 9.023438 L 12.539062 7.144531 Z M 10.65625 9.625 " fill-opacity="1" fill-rule="nonzero"/><g fill="rgb(100%, 100%, 100%)" fill-opacity="1"><g transform="translate(30.287696, 24.633305)"><g><path d="M 11.421875 0 L 11.421875 -9.65625 L 8.527344 -9.65625 L 6.183594 -3.621094 L 3.835938 -9.65625 L 0.957031 -9.65625 L 0.957031 0 L 3.011719 0 L 3.011719 -6.964844 L 5.734375 0 L 6.628906 0 L 9.351562 -6.964844 L 9.351562 0 Z M 11.421875 0 "/></g></g></g><g fill="rgb(100%, 100%, 100%)" fill-opacity="1"><g transform="translate(43.163996, 24.633305)"><g><path d="M 9.960938 0 L 6.238281 -9.65625 L 3.664062 -9.65625 L -0.0585938 0 L 2.273438 0 L 2.882812 -1.636719 L 7.019531 -1.636719 L 7.628906 0 Z M 6.457031 -3.445312 L 3.445312 -3.445312 L 4.949219 -7.601562 Z M 6.457031 -3.445312 "/></g></g></g><g fill="rgb(100%, 100%, 100%)" fill-opacity="1"><g transform="translate(53.566372, 24.633305)"><g><path d="M 4.777344 0 C 7.789062 0 9.886719 -1.910156 9.886719 -4.835938 C 9.886719 -7.730469 7.789062 -9.65625 4.761719 -9.65625 L 0.957031 -9.65625 L 0.957031 0 Z M 4.761719 -1.808594 L 3.011719 -1.808594 L 3.011719 -7.847656 L 4.777344 -7.847656 C 6.746094 -7.847656 7.789062 -6.527344 7.789062 -4.835938 C 7.789062 -3.183594 6.675781 -1.808594 4.761719 -1.808594 Z M 4.761719 -1.808594 "/></g></g></g><g fill="rgb(100%, 100%, 100%)" fill-opacity="1"><g transform="translate(64.460638, 24.633305)"><g><path d="M 7.789062 0 L 7.789062 -1.808594 L 3.011719 -1.808594 L 3.011719 -4.011719 L 7.6875 -4.011719 L 7.6875 -5.820312 L 3.011719 -5.820312 L 3.011719 -7.847656 L 7.789062 -7.847656 L 7.789062 -9.65625 L 0.957031 -9.65625 L 0.957031 0 Z M 7.789062 0 "/></g></g></g><g fill="rgb(100%, 100%, 100%)" fill-opacity="1"><g transform="translate(73.401815, 24.633305)"><g/></g></g><g fill="rgb(100%, 100%, 100%)" fill-opacity="1"><g transform="translate(77.626642, 24.633305)"><g><path d="M 3.011719 0 L 3.011719 -9.65625 L 0.957031 -9.65625 L 0.957031 0 Z M 3.011719 0 "/></g></g></g><g fill="rgb(100%, 100%, 100%)" fill-opacity="1"><g transform="translate(82.097418, 24.633305)"><g><path d="M 9.597656 0 L 9.597656 -9.65625 L 7.542969 -9.65625 L 7.542969 -3.589844 L 3.070312 -9.65625 L 0.957031 -9.65625 L 0.957031 0 L 3.011719 0 L 3.011719 -6.296875 L 7.613281 0 Z M 9.597656 0 "/></g></g></g><g fill="rgb(100%, 100%, 100%)" fill-opacity="1"><g transform="translate(93.150835, 24.633305)"><g/></g></g><g fill="rgb(100%, 100%, 100%)" fill-opacity="1"><g transform="translate(97.375658, 24.633305)"><g><path d="M 5.253906 0 L 5.253906 -7.847656 L 8.0625 -7.847656 L 8.0625 -9.65625 L 0.363281 -9.65625 L 0.363281 -7.847656 L 3.183594 -7.847656 L 3.183594 0 Z M 5.253906 0 "/></g></g></g><g fill="rgb(100%, 100%, 100%)" fill-opacity="1"><g transform="translate(106.302366, 24.633305)"><g><path d="M 9.960938 0 L 6.238281 -9.65625 L 3.664062 -9.65625 L -0.0585938 0 L 2.273438 0 L 2.882812 -1.636719 L 7.019531 -1.636719 L 7.628906 0 Z M 6.457031 -3.445312 L 3.445312 -3.445312 L 4.949219 -7.601562 Z M 6.457031 -3.445312 "/></g></g></g><g fill="rgb(100%, 100%, 100%)" fill-opacity="1"><g transform="translate(116.70474, 24.633305)"><g><path d="M 11.421875 0 L 11.421875 -9.65625 L 8.527344 -9.65625 L 6.183594 -3.621094 L 3.835938 -9.65625 L 0.957031 -9.65625 L 0.957031 0 L 3.011719 0 L 3.011719 -6.964844 L 5.734375 0 L 6.628906 0 L 9.351562 -6.964844 L 9.351562 0 Z M 11.421875 0 "/></g></g></g><g fill="rgb(100%, 100%, 100%)" fill-opacity="1"><g transform="translate(129.581036, 24.633305)"><g><path d="M 3.011719 0 L 3.011719 -3.445312 L 5.472656 -3.445312 C 7.558594 -3.445312 8.714844 -4.863281 8.714844 -6.542969 C 8.714844 -8.238281 7.570312 -9.65625 5.472656 -9.65625 L 0.957031 -9.65625 L 0.957031 0 Z M 5.183594 -5.253906 L 3.011719 -5.253906 L 3.011719 -7.847656 L 5.183594 -7.847656 C 5.992188 -7.847656 6.617188 -7.355469 6.617188 -6.542969 C 6.617188 -5.746094 5.992188 -5.253906 5.183594 -5.253906 Z M 5.183594 -5.253906 "/></g></g></g><g clip-path="url(#id6)"><g fill="rgb(100%, 100%, 100%)" fill-opacity="1"><g transform="translate(139.129847, 24.633305)"><g><path d="M 9.960938 0 L 6.238281 -9.65625 L 3.664062 -9.65625 L -0.0585938 0 L 2.273438 0 L 2.882812 -1.636719 L 7.019531 -1.636719 L 7.628906 0 Z M 6.457031 -3.445312 L 3.445312 -3.445312 L 4.949219 -7.601562 Z M 6.457031 -3.445312 "/></g></g></g></g></svg>