<?xml version="1.0" encoding="utf-8"?>
<!-- Generator: Adobe Illustrator 25.0.0, SVG Export Plug-In . SVG Version: 6.00 Build 0)  -->
<svg version="1.1" id="Layer_1" xmlns="http://www.w3.org/2000/svg" xmlns:xlink="http://www.w3.org/1999/xlink" x="0px" y="0px"
	 viewBox="0 0 30 30" style="enable-background:new 0 0 30 30;" xml:space="preserve">
<style type="text/css">
	.st0{fill:#FFFFFF;}
</style>
<g>
	<path class="st0" d="M24.8,12.57c-3.47-2.14-6.93-2.53-10.35,0.03c-3.38,2.53-4.22,5.89-3.09,9.88c-0.14,0.01-0.24,0.04-0.35,0.04
		c-2.59,0-5.18,0.01-7.77,0c-1.51-0.01-2.64-0.84-3.06-2.23c-0.09-0.31-0.14-0.65-0.14-0.98c-0.01-4.09-0.01-8.18,0-12.27
		c0-1.63,1.17-2.93,2.78-3.13c0.1-0.01,0.29,0.06,0.31,0.13c0.16,0.48,0.51,0.61,0.96,0.62C4.7,4.67,4.7,4.68,4.7,5.29
		c0,0.23-0.01,0.46,0,0.69C4.72,6.47,5,6.78,5.45,6.81c0.38,0.02,0.7-0.24,0.75-0.71c0.06-0.53,0.05-1.06,0.06-1.6
		c0.01-0.73-0.06-0.6,0.6-0.62c0.22,0,0.44-0.01,0.66,0C7.73,3.9,7.8,3.82,7.8,3.61c-0.01-0.64-0.01-1.29,0-1.93
		C7.8,0.65,8.45,0,9.48,0c1.96,0,3.93,0,5.89,0c0.73,0,1.31,0.26,1.59,0.97c0.1,0.25,0.13,0.55,0.14,0.83
		c0.02,0.67,0.01,1.35,0.01,2.06c0.52,0,1,0,1.52,0c0,0.62-0.01,1.2,0,1.79c0,0.22,0.02,0.44,0.08,0.65
		c0.09,0.34,0.37,0.51,0.73,0.51c0.33-0.01,0.63-0.19,0.68-0.52c0.07-0.4,0.07-0.82,0.07-1.23c0-0.26,0.06-0.4,0.35-0.38
		c0.14,0.01,0.28-0.03,0.42-0.03c0.38-0.01,0.63-0.19,0.74-0.55c0.05-0.16,0.13-0.2,0.28-0.18c1.49,0.11,2.78,1.35,2.83,2.86
		c0.06,1.89,0.02,3.79,0.02,5.68C24.84,12.46,24.83,12.49,24.8,12.57z M9.42,1.58C9.4,1.65,9.38,1.69,9.38,1.72
		c0,0.64,0,1.29-0.01,1.93c0,0.19,0.11,0.2,0.25,0.2c1.88,0,3.76,0,5.64,0c0.2,0,0.26-0.07,0.26-0.26c-0.01-0.55-0.02-1.11,0-1.66
		c0.01-0.27-0.07-0.36-0.35-0.36c-1.82,0.01-3.64,0.01-5.46,0.01C9.62,1.58,9.52,1.58,9.42,1.58z"/>
	<path class="st0" d="M19.74,13.43c3.5-0.01,6.31,2.8,6.33,6.34c0.02,3.45-2.86,6.31-6.33,6.31c-3.48,0-6.3-2.83-6.3-6.33
		C13.43,16.24,16.22,13.44,19.74,13.43z M23.63,19.76c0-2.17-1.73-3.9-3.92-3.91c-2.11-0.01-3.87,1.76-3.87,3.9
		c0,2.15,1.73,3.9,3.86,3.9C21.88,23.66,23.63,21.93,23.63,19.76z"/>
	<path class="st0" d="M28.28,30c-0.19-0.1-0.52-0.18-0.74-0.39c-1-0.95-1.97-1.93-2.94-2.91c-0.29-0.29-0.29-0.64-0.01-0.94
		c0.37-0.39,0.76-0.78,1.16-1.15c0.31-0.29,0.64-0.29,0.94,0.01c0.96,0.95,1.92,1.89,2.85,2.86c0.44,0.46,0.51,1.04,0.24,1.63
		C29.52,29.7,29.01,29.92,28.28,30z"/>
</g>
</svg>
