<?xml version="1.0" encoding="utf-8"?>
<!-- Generator: Adobe Illustrator 25.0.0, SVG Export Plug-In . SVG Version: 6.00 Build 0)  -->
<svg version="1.1" id="Layer_1" xmlns="http://www.w3.org/2000/svg" xmlns:xlink="http://www.w3.org/1999/xlink" x="0px" y="0px"
	 viewBox="0 0 30 30" style="enable-background:new 0 0 30 30;" xml:space="preserve">
<style type="text/css">
	.st0{fill:#FFFFFF;}
</style>
<g>
	<path class="st0" d="M3.06,17.56c-0.01,4,2.59,7.61,6.39,8.88c4.66,1.56,9.73-0.68,11.66-5.21c1.07-2.52,1.02-5.06-0.1-7.57
		c-0.21-0.46-0.21-0.47,0.16-0.8c0.52-0.48,1.05-0.96,1.57-1.44c0.27-0.25,0.38-0.23,0.55,0.09c0.77,1.38,1.24,2.85,1.42,4.41
		c0.12,1.03,0.22,2.06,0.11,3.1c-0.18,1.61-0.67,3.11-1.47,4.51c-1.46,2.56-3.51,4.47-6.28,5.56c-2.05,0.81-4.18,1.13-6.36,0.76
		c-4.77-0.82-8.11-3.48-9.9-7.99c-0.78-1.96-0.98-4.03-0.63-6.11c0.78-4.63,3.35-7.88,7.69-9.7c1.5-0.63,3.08-0.94,4.71-0.92
		c2.02,0.02,3.91,0.57,5.69,1.49c0.64,0.33,0.64,0.33,0.15,0.86c-0.43,0.47-0.87,0.94-1.3,1.41c-0.3,0.33-0.32,0.33-0.74,0.15
		c-1.32-0.6-2.7-0.89-4.14-0.87c-3.78,0.05-7.26,2.52-8.56,6.05C3.22,15.47,3.06,16.34,3.06,17.56z"/>
	<path class="st0" d="M20.2,6.87c-0.03-0.63-0.09-1.19-0.08-1.74c0.01-0.28,0.09-0.6,0.24-0.83c0.9-1.33,1.84-2.65,2.77-3.96
		c0.1-0.14,0.26-0.22,0.4-0.33c0.12,0.15,0.28,0.28,0.34,0.45c0.46,1.28,0.9,2.56,1.34,3.85c0.09,0.26,0.26,0.42,0.52,0.51
		c1.29,0.44,2.58,0.89,3.87,1.34c0.01,0,0.02,0,0.03,0.01c0.13,0.1,0.35,0.19,0.37,0.3c0.02,0.12-0.14,0.3-0.26,0.39
		c-1.26,0.9-2.53,1.79-3.8,2.66c-0.28,0.19-0.62,0.33-0.95,0.41c-0.24,0.06-0.51-0.02-0.77-0.04c-0.43-0.03-0.86-0.05-1.29-0.08
		c-0.3-0.03-0.53,0.07-0.75,0.28c-1.73,1.6-3.47,3.19-5.21,4.79c-1.21,1.12-2.42,2.23-3.64,3.34c-0.18,0.16-0.4,0.32-0.63,0.38
		c-0.41,0.11-0.89-0.17-1.13-0.61c-0.22-0.39-0.18-0.77,0.16-1.14c0.81-0.9,1.63-1.78,2.45-2.67c1.87-2.03,3.73-4.06,5.61-6.08
		C20.09,7.72,20.33,7.33,20.2,6.87z"/>
	<path class="st0" d="M14.43,11.76c-0.08,0.11-0.14,0.2-0.21,0.28c-0.65,0.71-1.3,1.43-1.97,2.12c-0.16,0.16-0.4,0.28-0.62,0.34
		c-1.35,0.37-2.33,1.59-2.35,2.99c-0.03,1.45,0.9,2.71,2.29,3.12c1.74,0.51,3.5-0.5,3.96-2.26c0.06-0.25,0.18-0.46,0.38-0.63
		c0.68-0.61,1.34-1.23,2.01-1.85c0.34-0.32,0.39-0.3,0.52,0.16c0.22,0.82,0.27,1.64,0.14,2.49c-0.18,1.18-0.63,2.23-1.43,3.12
		c-1.49,1.66-3.38,2.34-5.58,2.07c-2.34-0.28-4.4-2.14-5.05-4.43c-0.88-3.12,0.76-6.28,3.58-7.41c1.38-0.56,2.79-0.64,4.22-0.16
		C14.33,11.7,14.36,11.72,14.43,11.76z"/>
</g>
</svg>
