<?xml version="1.0" encoding="utf-8"?>
<!-- Generator: Adobe Illustrator 25.0.0, SVG Export Plug-In . SVG Version: 6.00 Build 0)  -->
<svg version="1.1" id="Layer_1" xmlns="http://www.w3.org/2000/svg" xmlns:xlink="http://www.w3.org/1999/xlink" x="0px" y="0px"
	 viewBox="0 0 30 30" style="enable-background:new 0 0 30 30;" xml:space="preserve">
<style type="text/css">
	.st0{fill:#FFFFFF;}
</style>
<g>
	<path class="st0" d="M23.98,20.5c0-2.89,0-5.78,0-8.67c0-0.75,0.05-0.8,0.81-0.8c1.19,0,2.38,0,3.58,0c0.08,0,0.17,0,0.25,0
		c0.45,0.02,0.56,0.14,0.56,0.59c0,3.56,0,7.12,0,10.68c0,2.29,0,4.58,0,6.87c0,0.73-0.1,0.83-0.84,0.83c-1.24,0-2.49,0-3.73,0
		c-0.52,0-0.64-0.12-0.64-0.65C23.98,26.4,23.98,23.45,23.98,20.5C23.98,20.5,23.98,20.5,23.98,20.5z"/>
	<path class="st0" d="M27.54,3.61c0,0.96,0,1.93,0,2.89c0,0.14,0,0.3-0.05,0.42c-0.13,0.32-0.55,0.38-0.83,0.11
		c-0.43-0.42-0.84-0.85-1.26-1.28c-0.48-0.48-0.49-0.49-0.98,0c-2.67,2.64-5.76,4.65-9.21,6.1c-1.98,0.84-4.03,1.49-6.13,1.98
		c-2.34,0.55-4.71,0.87-7.11,1.04c-0.08,0.01-0.17,0.01-0.25,0.01c-0.67,0.03-1.03-0.43-0.86-1.09c0.02-0.08,0.13-0.17,0.21-0.18
		c0.31-0.07,0.63-0.13,0.94-0.17c1.6-0.19,3.17-0.51,4.72-0.92c5.33-1.43,10.05-3.94,13.92-7.94c0.43-0.45,0.85-0.92,1.26-1.39
		c0.32-0.37,0.31-0.58-0.04-0.94c-0.42-0.44-0.86-0.86-1.29-1.29c-0.16-0.16-0.35-0.34-0.23-0.59c0.12-0.26,0.37-0.37,0.65-0.37
		C21.81,0,22.62,0,23.44,0c1.12,0,2.25,0,3.37,0c0.57,0,0.73,0.15,0.73,0.72C27.54,1.68,27.54,2.65,27.54,3.61
		C27.54,3.61,27.54,3.61,27.54,3.61z"/>
	<path class="st0" d="M16.32,22.24c0-2.32,0-4.63,0-6.95c0-0.69,0.09-0.78,0.77-0.78c1.24,0,2.48,0,3.73,0
		c0.57,0,0.71,0.13,0.71,0.7c0,4.69,0,9.38,0,14.07c0,0.57-0.13,0.71-0.7,0.71c-1.28,0-2.55,0-3.83,0c-0.57,0-0.68-0.11-0.68-0.69
		C16.32,26.95,16.32,24.6,16.32,22.24z"/>
	<path class="st0" d="M14.11,23.96c0,1.73,0,3.47,0,5.2c0,0.77-0.08,0.84-0.84,0.84c-1.23,0-2.45,0-3.68,0
		c-0.54,0-0.68-0.14-0.68-0.68c0-3.57,0-7.13,0-10.7c0-0.53,0.14-0.67,0.66-0.67c1.3,0,2.6,0,3.9,0c0.51,0,0.63,0.12,0.63,0.63
		C14.11,20.38,14.1,22.17,14.11,23.96C14.11,23.96,14.11,23.96,14.11,23.96z"/>
	<path class="st0" d="M1.12,25.52c0-1.23,0-2.45,0-3.68c0-0.1,0-0.2,0-0.3c0.02-0.37,0.12-0.48,0.49-0.5
		c0.46-0.02,0.91-0.02,1.37-0.02c0.9,0,1.81,0,2.71,0.01c0.5,0,0.62,0.12,0.62,0.64c0,2.53,0,5.05,0,7.58
		c0,0.59-0.15,0.74-0.73,0.74c-1.26,0-2.52,0-3.78,0c-0.59,0-0.69-0.11-0.69-0.7C1.12,28.04,1.12,26.78,1.12,25.52z"/>
</g>
</svg>
