<svg xmlns="http://www.w3.org/2000/svg" xmlns:xlink="http://www.w3.org/1999/xlink" contentScriptType="text/ecmascript" width="93.75" viewBox="0 0 93.75 37.5" height="37.5" version="1.0"><defs><g id="b"><path d="M 1.75 0 L 3.570312 0 L 3.570312 -6.824219 L 5.210938 -6.824219 L 5.210938 -8.378906 L 0.121094 -8.378906 L 0.121094 -6.824219 L 1.75 -6.824219 Z M 1.75 0"/></g><g id="c"><path d="M 2.71875 -6.339844 C 1.578125 -6.339844 0.667969 -5.828125 0.386719 -4.722656 L 1.722656 -4.214844 C 1.847656 -4.699219 2.136719 -5.089844 2.683594 -5.089844 C 3.277344 -5.089844 3.507812 -4.75 3.4375 -4.105469 L 3.425781 -4.007812 C 2.648438 -3.875 1.871094 -3.65625 1.324219 -3.316406 C 0.679688 -2.914062 0.304688 -2.355469 0.304688 -1.507812 C 0.304688 -0.511719 0.933594 0.132812 1.917969 0.132812 C 2.367188 0.132812 3.121094 -0.0742188 3.386719 -0.886719 L 3.484375 -0.886719 L 3.558594 0 L 5.089844 0 L 5.089844 -4.152344 C 5.089844 -5.71875 4.140625 -6.339844 2.71875 -6.339844 Z M 2.609375 -1.128906 C 2.28125 -1.082031 1.957031 -1.3125 1.957031 -1.722656 C 1.957031 -2.066406 2.171875 -2.332031 2.488281 -2.539062 C 2.730469 -2.707031 3.058594 -2.839844 3.398438 -2.902344 L 3.398438 -1.796875 C 3.230469 -1.457031 2.976562 -1.164062 2.609375 -1.128906 Z M 2.609375 -1.128906"/></g><g id="d"><path d="M 0.605469 0 L 2.378906 0 L 2.378906 -3.679688 C 2.378906 -4.382812 2.585938 -4.808594 3.023438 -4.808594 C 3.425781 -4.808594 3.617188 -4.589844 3.617188 -3.933594 L 3.617188 0 L 5.390625 0 L 5.390625 -3.679688 C 5.390625 -4.382812 5.597656 -4.808594 6.035156 -4.808594 C 6.449219 -4.808594 6.65625 -4.566406 6.65625 -4.019531 L 6.65625 0 L 8.429688 0 L 8.429688 -4.421875 C 8.429688 -5.730469 7.820312 -6.339844 6.863281 -6.339844 C 6.035156 -6.339844 5.550781 -5.949219 5.199219 -5.199219 L 5.160156 -5.199219 C 4.992188 -6.085938 4.519531 -6.339844 3.8125 -6.339844 C 3.121094 -6.339844 2.648438 -5.925781 2.378906 -5.292969 L 2.332031 -5.292969 L 2.246094 -6.21875 L 0.605469 -6.21875 Z M 0.605469 0"/></g><g id="e"><path d="M 0.605469 2.160156 L 2.34375 2.160156 L 2.34375 -0.921875 L 2.40625 -0.921875 C 2.660156 -0.242188 3.195312 0.132812 4.042969 0.132812 C 5.160156 0.132812 5.976562 -0.921875 5.976562 -3.109375 C 5.976562 -5.28125 5.171875 -6.339844 3.875 -6.339844 C 3.121094 -6.339844 2.515625 -5.878906 2.28125 -5.171875 L 2.222656 -5.171875 L 2.148438 -6.21875 L 0.605469 -6.21875 Z M 3.265625 -1.335938 C 2.683594 -1.335938 2.355469 -1.980469 2.355469 -3.132812 C 2.355469 -4.25 2.683594 -4.871094 3.265625 -4.871094 C 3.851562 -4.871094 4.175781 -4.335938 4.175781 -3.132812 C 4.175781 -1.894531 3.851562 -1.335938 3.265625 -1.335938 Z M 3.265625 -1.335938"/></g><g id="g"><path d="M 0.582031 0 L 2.378906 0 L 2.390625 -3.789062 L 2.222656 -6.847656 L 2.296875 -6.847656 L 3.800781 0 L 5.308594 0 L 6.824219 -6.847656 L 6.898438 -6.847656 L 6.714844 -3.800781 L 6.738281 0 L 8.574219 0 L 8.574219 -8.378906 L 5.769531 -8.378906 L 4.554688 -1.957031 L 3.339844 -8.378906 L 0.582031 -8.378906 Z M 0.582031 0"/></g><g id="h"><path d="M 3.886719 -8.378906 L 3.886719 -5.257812 L 3.824219 -5.257812 C 3.605469 -5.914062 3.085938 -6.339844 2.40625 -6.339844 C 1.191406 -6.339844 0.28125 -5.355469 0.28125 -3.109375 C 0.28125 -0.898438 1.179688 0.132812 2.441406 0.132812 C 3.121094 0.132812 3.714844 -0.292969 3.921875 -0.921875 L 3.972656 -0.921875 L 4.042969 0 L 5.660156 0 L 5.660156 -8.378906 Z M 3.011719 -1.347656 C 2.464844 -1.347656 2.078125 -1.894531 2.078125 -3.121094 C 2.078125 -4.3125 2.464844 -4.84375 3.011719 -4.84375 C 3.582031 -4.84375 3.910156 -4.226562 3.910156 -3.121094 C 3.910156 -1.980469 3.582031 -1.347656 3.011719 -1.347656 Z M 3.011719 -1.347656"/></g><g id="i"><path d="M 3.109375 -1.300781 C 2.429688 -1.300781 2.015625 -1.761719 2.015625 -2.695312 L 5.28125 -2.695312 C 5.320312 -2.890625 5.332031 -3.230469 5.332031 -3.414062 C 5.332031 -5.171875 4.566406 -6.339844 2.867188 -6.339844 C 1.054688 -6.339844 0.292969 -5.027344 0.292969 -3.058594 C 0.292969 -1.019531 1.347656 0.121094 3.011719 0.121094 C 4.007812 0.121094 4.808594 -0.242188 5.292969 -1.382812 L 4.054688 -1.90625 C 3.824219 -1.46875 3.507812 -1.300781 3.109375 -1.300781 Z M 2.925781 -4.992188 C 3.582031 -4.992188 3.753906 -4.46875 3.742188 -3.835938 L 2.050781 -3.835938 C 2.089844 -4.542969 2.308594 -4.992188 2.925781 -4.992188 Z M 2.925781 -4.992188"/></g><clipPath id="a"><path d="M 4.203125 11.804688 L 19.789062 11.804688 L 19.789062 27.386719 L 4.203125 27.386719 Z M 4.203125 11.804688"/></clipPath></defs><g clip-path="url(#a)"><path d="M 11.996094 11.804688 C 7.699219 11.804688 4.214844 15.308594 4.214844 19.628906 C 4.214844 23.609375 7.171875 26.894531 11 27.386719 C 11.355469 25.8125 11.523438 24.214844 11.503906 22.601562 C 11.417969 22.652344 11.332031 22.71875 11.246094 22.804688 C 11.246094 22.804688 11.304688 22.605469 11.496094 22.378906 C 11.472656 21.359375 11.375 20.335938 11.203125 19.308594 C 10.246094 20.042969 10.507812 21.441406 10.507812 21.441406 C 10.34375 21.253906 10.160156 20.785156 10.160156 20.785156 C 9.832031 21.46875 10.394531 22.816406 10.394531 22.816406 C 9.644531 22.429688 9.113281 21.261719 9.113281 21.261719 C 9.039062 21.367188 9.023438 21.480469 9.023438 21.480469 C 8.566406 20.023438 9.746094 19.40625 9.746094 19.40625 C 9.433594 19.4375 8.90625 19.730469 8.90625 19.730469 C 9.019531 19.582031 9.144531 19.460938 9.269531 19.355469 C 8.933594 19.574219 8.769531 19.828125 8.769531 19.828125 C 8.808594 19.542969 9 19.332031 9 19.332031 C 7.941406 19.371094 7.082031 20.382812 7.082031 20.382812 C 7.058594 19.539062 8.511719 18.507812 8.511719 18.507812 C 8.140625 18.355469 7.765625 18.570312 7.765625 18.570312 C 8.25 18.101562 9.609375 18.210938 9.609375 18.210938 C 9.246094 17.972656 8.882812 17.960938 8.882812 17.960938 C 9.296875 17.875 9.796875 17.988281 10.210938 18.136719 C 10.324219 18.144531 10.421875 18.160156 10.421875 18.160156 C 10.101562 18.003906 9.585938 17.832031 9.585938 17.832031 L 10.128906 17.683594 C 9.324219 17.308594 8.613281 17.570312 8.613281 17.570312 C 8.738281 17.429688 9.222656 17.300781 9.222656 17.300781 C 8.859375 17.144531 8.179688 17.199219 8.179688 17.199219 C 9.554688 16.042969 10.417969 16.945312 10.753906 17.449219 C 10.75 17.285156 10.761719 17.167969 10.761719 17.167969 C 10.785156 17.265625 10.867188 17.382812 10.917969 17.449219 C 10.910156 17.398438 10.898438 17.347656 10.886719 17.304688 C 10.878906 17.285156 10.875 17.265625 10.871094 17.25 C 10.828125 17.128906 10.78125 17.046875 10.78125 17.046875 C 10.800781 17.066406 10.820312 17.089844 10.839844 17.113281 C 10.714844 16.429688 11.21875 16.128906 11.21875 16.128906 C 11.007812 16.390625 11.074219 16.515625 11.074219 16.515625 C 12.046875 15.320312 12.914062 15.535156 12.914062 15.535156 C 12.203125 15.835938 11.742188 16.519531 11.742188 16.519531 C 12.054688 16.195312 12.417969 16.257812 12.417969 16.257812 C 11.265625 16.964844 11.53125 17.414062 11.53125 17.414062 C 11.757812 17.035156 11.894531 17.046875 11.894531 17.046875 C 11.664062 17.382812 11.585938 17.753906 11.574219 18.0625 C 11.710938 17.613281 12.128906 17.261719 12.128906 17.261719 C 12.054688 17.390625 12.046875 17.644531 12.046875 17.644531 C 12.386719 16.640625 13.175781 16.824219 13.175781 16.824219 C 12.84375 16.863281 12.804688 17.003906 12.804688 17.003906 C 14.332031 16.808594 14.808594 17.566406 14.808594 17.566406 C 14.085938 17.292969 13.289062 17.46875 13.289062 17.46875 C 13.734375 17.449219 13.957031 17.75 13.957031 17.75 C 12.636719 17.460938 12.519531 17.96875 12.519531 17.96875 C 12.742188 17.90625 12.871094 17.90625 12.949219 17.921875 C 13.375 17.816406 13.703125 17.828125 13.703125 17.828125 C 13.382812 17.925781 13.371094 18.042969 13.371094 18.042969 C 14.757812 17.875 15.019531 18.519531 15.019531 18.519531 C 14.625 18.230469 14.519531 18.304688 14.519531 18.304688 C 15.972656 19.28125 15.777344 20.582031 15.777344 20.582031 C 15.40625 19.558594 14.554688 19.417969 14.554688 19.417969 C 14.789062 19.609375 15.011719 20.261719 15.011719 20.261719 C 14.558594 19.515625 13.296875 18.875 13.296875 18.875 C 13.660156 19.078125 13.664062 19.449219 13.664062 19.449219 C 12.707031 18.582031 11.933594 18.9375 11.742188 19.050781 C 11.957031 19.984375 12.136719 20.925781 12.269531 21.878906 C 12.378906 21.839844 12.5 21.808594 12.632812 21.789062 C 12.632812 21.789062 12.59375 21.714844 12.273438 21.777344 C 12.273438 21.777344 12.609375 21.464844 13.394531 21.957031 C 13.394531 21.957031 13.421875 21.882812 13.253906 21.734375 C 13.253906 21.734375 13.457031 21.820312 13.683594 22 C 13.730469 22.015625 13.808594 22.050781 13.925781 22.152344 C 13.925781 22.152344 14 21.8125 13.128906 21.617188 C 13.128906 21.617188 13.34375 21.5 13.605469 21.636719 C 13.605469 21.636719 13.175781 21.304688 12.664062 21.265625 C 12.664062 21.265625 13.164062 20.945312 14.023438 21.492188 C 14.023438 21.492188 14.042969 21.398438 13.851562 21.28125 C 13.851562 21.28125 14.378906 21.394531 14.300781 22.089844 C 14.300781 22.089844 14.367188 21.9375 14.359375 21.835938 C 14.359375 21.835938 14.503906 22.152344 14.46875 22.457031 C 14.472656 22.453125 14.476562 22.449219 14.480469 22.445312 C 14.550781 22.257812 14.601562 22.027344 14.558594 21.773438 C 14.558594 21.773438 14.644531 21.804688 14.675781 22.097656 C 14.675781 22.097656 14.957031 21.902344 14.464844 21.152344 C 14.464844 21.152344 14.699219 21.21875 14.796875 21.5 C 14.796875 21.5 14.710938 20.960938 14.367188 20.582031 C 14.367188 20.582031 14.949219 20.695312 15.199219 21.683594 C 15.199219 21.683594 15.273438 21.628906 15.21875 21.414062 C 15.21875 21.414062 15.4375 21.738281 15.171875 22.113281 C 15.191406 22.105469 15.207031 22.09375 15.226562 22.085938 C 15.226562 22.085938 15.113281 22.167969 15.03125 22.289062 C 15.082031 22.265625 15.164062 22.21875 15.203125 22.164062 C 15.203125 22.164062 15.179688 22.238281 15.128906 22.335938 C 15.472656 22.128906 16.242188 21.828125 16.746094 22.910156 C 16.746094 22.910156 16.351562 22.6875 16.089844 22.679688 C 16.089844 22.679688 16.347656 22.890625 16.382812 23.011719 C 16.382812 23.011719 16.027344 22.652344 15.441406 22.652344 L 15.726562 22.894531 C 15.726562 22.894531 15.367188 22.851562 15.132812 22.855469 C 15.132812 22.855469 15.195312 22.875 15.265625 22.902344 C 15.554688 22.929688 15.886719 23 16.109375 23.167969 C 16.109375 23.167969 15.890625 23.074219 15.605469 23.117188 C 15.605469 23.117188 16.453125 23.429688 16.613281 23.847656 C 16.613281 23.847656 16.445312 23.613281 16.179688 23.601562 C 16.179688 23.601562 16.765625 24.628906 16.519531 25.128906 C 16.519531 25.128906 16.285156 24.28125 15.660156 23.960938 C 15.660156 23.960938 15.714844 24.140625 15.660156 24.324219 C 15.660156 24.324219 15.632812 24.125 15.492188 23.894531 C 15.539062 23.996094 15.578125 24.105469 15.605469 24.226562 C 15.605469 24.226562 15.371094 23.898438 15.191406 23.792969 C 15.191406 23.792969 15.726562 24.496094 15.050781 25.242188 C 15.050781 25.242188 15.070312 25.171875 15.054688 25.085938 C 15.054688 25.085938 14.410156 25.632812 13.855469 25.65625 C 13.855469 25.65625 14.566406 25.007812 14.558594 24.503906 C 14.558594 24.503906 14.320312 24.734375 14.167969 24.800781 C 14.167969 24.800781 14.691406 24.070312 14.367188 23.375 C 13.695312 24.617188 13.234375 25.960938 12.996094 27.386719 C 16.824219 26.894531 19.777344 23.609375 19.777344 19.628906 C 19.777344 15.308594 16.292969 11.804688 11.996094 11.804688"/></g><path d="M 14.097656 23.027344 C 14.027344 22.921875 13.667969 22.460938 12.828125 22.71875 C 12.828125 22.71875 12.9375 22.496094 13.207031 22.476562 C 13.207031 22.476562 12.785156 22.488281 12.359375 22.597656 C 12.5 23.835938 12.546875 25.078125 12.464844 26.320312 C 12.875 25.144531 13.449219 24.050781 14.097656 23.027344"/><g><use x="20.516" y="23.904" xmlns:xlink="http://www.w3.org/1999/xlink" xlink:href="#b" xlink:type="simple" xlink:actuate="onLoad" xlink:show="embed"/></g><g><use x="25.847" y="23.904" xmlns:xlink="http://www.w3.org/1999/xlink" xlink:href="#c" xlink:type="simple" xlink:actuate="onLoad" xlink:show="embed"/></g><g><use x="31.493" y="23.904" xmlns:xlink="http://www.w3.org/1999/xlink" xlink:href="#d" xlink:type="simple" xlink:actuate="onLoad" xlink:show="embed"/></g><g><use x="40.479" y="23.904" xmlns:xlink="http://www.w3.org/1999/xlink" xlink:href="#e" xlink:type="simple" xlink:actuate="onLoad" xlink:show="embed"/></g><g><use x="46.745" y="23.904" xmlns:xlink="http://www.w3.org/1999/xlink" xlink:href="#c" xlink:type="simple" xlink:actuate="onLoad" xlink:show="embed"/></g><g><use x="52.392" y="23.904" xmlns:xlink="http://www.w3.org/1999/xlink" xlink:href="#f" xlink:type="simple" xlink:actuate="onLoad" xlink:show="embed"/></g><g><use x="54.711" y="23.904" xmlns:xlink="http://www.w3.org/1999/xlink" xlink:href="#g" xlink:type="simple" xlink:actuate="onLoad" xlink:show="embed"/></g><g><use x="63.855" y="23.904" xmlns:xlink="http://www.w3.org/1999/xlink" xlink:href="#c" xlink:type="simple" xlink:actuate="onLoad" xlink:show="embed"/></g><g><use x="69.502" y="23.904" xmlns:xlink="http://www.w3.org/1999/xlink" xlink:href="#h" xlink:type="simple" xlink:actuate="onLoad" xlink:show="embed"/></g><g><use x="75.767" y="23.904" xmlns:xlink="http://www.w3.org/1999/xlink" xlink:href="#i" xlink:type="simple" xlink:actuate="onLoad" xlink:show="embed"/></g></svg>