<svg xmlns="http://www.w3.org/2000/svg" xmlns:xlink="http://www.w3.org/1999/xlink" contentScriptType="text/ecmascript" width="135" viewBox="0 0 135 37.5" height="37.5" version="1.0"><defs><g id="b"><path d="M 2.875 0 L 5.871094 0 L 5.871094 -11.222656 L 8.566406 -11.222656 L 8.566406 -13.777344 L 0.199219 -13.777344 L 0.199219 -11.222656 L 2.875 -11.222656 Z M 2.875 0"/></g><g id="c"><path d="M 4.472656 -10.421875 C 2.597656 -10.421875 1.097656 -9.585938 0.640625 -7.769531 L 2.835938 -6.929688 C 3.035156 -7.726562 3.515625 -8.367188 4.414062 -8.367188 C 5.390625 -8.367188 5.769531 -7.808594 5.652344 -6.75 L 5.632812 -6.589844 C 4.351562 -6.371094 3.074219 -6.011719 2.175781 -5.453125 C 1.117188 -4.792969 0.5 -3.875 0.5 -2.476562 C 0.5 -0.839844 1.539062 0.21875 3.15625 0.21875 C 3.894531 0.21875 5.132812 -0.121094 5.570312 -1.457031 L 5.730469 -1.457031 L 5.851562 0 L 8.367188 0 L 8.367188 -6.828125 C 8.367188 -9.40625 6.808594 -10.421875 4.472656 -10.421875 Z M 4.292969 -1.855469 C 3.753906 -1.777344 3.214844 -2.15625 3.214844 -2.835938 C 3.214844 -3.394531 3.574219 -3.835938 4.09375 -4.171875 C 4.492188 -4.453125 5.03125 -4.671875 5.589844 -4.773438 L 5.589844 -2.957031 C 5.3125 -2.394531 4.890625 -1.917969 4.292969 -1.855469 Z M 4.292969 -1.855469"/></g><g id="d"><path d="M 1 0 L 3.914062 0 L 3.914062 -6.050781 C 3.914062 -7.207031 4.253906 -7.90625 4.972656 -7.90625 C 5.632812 -7.90625 5.949219 -7.546875 5.949219 -6.46875 L 5.949219 0 L 8.867188 0 L 8.867188 -6.050781 C 8.867188 -7.207031 9.207031 -7.90625 9.925781 -7.90625 C 10.601562 -7.90625 10.941406 -7.507812 10.941406 -6.609375 L 10.941406 0 L 13.859375 0 L 13.859375 -7.269531 C 13.859375 -9.425781 12.859375 -10.421875 11.28125 -10.421875 C 9.925781 -10.421875 9.125 -9.785156 8.546875 -8.546875 L 8.488281 -8.546875 C 8.207031 -10.003906 7.429688 -10.421875 6.269531 -10.421875 C 5.132812 -10.421875 4.351562 -9.746094 3.914062 -8.707031 L 3.835938 -8.707031 L 3.695312 -10.222656 L 1 -10.222656 Z M 1 0"/></g><g id="e"><path d="M 1 3.554688 L 3.855469 3.554688 L 3.855469 -1.519531 L 3.953125 -1.519531 C 4.375 -0.398438 5.25 0.21875 6.648438 0.21875 C 8.488281 0.21875 9.824219 -1.519531 9.824219 -5.113281 C 9.824219 -8.6875 8.507812 -10.421875 6.371094 -10.421875 C 5.132812 -10.421875 4.132812 -9.664062 3.753906 -8.507812 L 3.652344 -8.507812 L 3.535156 -10.222656 L 1 -10.222656 Z M 5.371094 -2.195312 C 4.414062 -2.195312 3.875 -3.253906 3.875 -5.152344 C 3.875 -6.988281 4.414062 -8.007812 5.371094 -8.007812 C 6.332031 -8.007812 6.871094 -7.128906 6.871094 -5.152344 C 6.871094 -3.113281 6.332031 -2.195312 5.371094 -2.195312 Z M 5.371094 -2.195312"/></g><g id="g"><path d="M 0.957031 0 L 3.914062 0 L 3.933594 -6.230469 L 3.652344 -11.261719 L 3.773438 -11.261719 L 6.25 0 L 8.726562 0 L 11.222656 -11.261719 L 11.34375 -11.261719 L 11.042969 -6.25 L 11.082031 0 L 14.097656 0 L 14.097656 -13.777344 L 9.484375 -13.777344 L 7.488281 -3.214844 L 5.492188 -13.777344 L 0.957031 -13.777344 Z M 0.957031 0"/></g><g id="h"><path d="M 6.390625 -13.777344 L 6.390625 -8.644531 L 6.289062 -8.644531 C 5.929688 -9.726562 5.070312 -10.421875 3.953125 -10.421875 C 1.957031 -10.421875 0.460938 -8.804688 0.460938 -5.113281 C 0.460938 -1.476562 1.9375 0.21875 4.015625 0.21875 C 5.132812 0.21875 6.109375 -0.480469 6.449219 -1.519531 L 6.53125 -1.519531 L 6.648438 0 L 9.304688 0 L 9.304688 -13.777344 Z M 4.953125 -2.214844 C 4.054688 -2.214844 3.414062 -3.113281 3.414062 -5.132812 C 3.414062 -7.089844 4.054688 -7.96875 4.953125 -7.96875 C 5.890625 -7.96875 6.429688 -6.949219 6.429688 -5.132812 C 6.429688 -3.253906 5.890625 -2.214844 4.953125 -2.214844 Z M 4.953125 -2.214844"/></g><g id="i"><path d="M 5.113281 -2.136719 C 3.992188 -2.136719 3.316406 -2.894531 3.316406 -4.433594 L 8.6875 -4.433594 C 8.746094 -4.753906 8.765625 -5.3125 8.765625 -5.609375 C 8.765625 -8.507812 7.507812 -10.421875 4.710938 -10.421875 C 1.738281 -10.421875 0.480469 -8.265625 0.480469 -5.03125 C 0.480469 -1.675781 2.214844 0.199219 4.953125 0.199219 C 6.589844 0.199219 7.90625 -0.398438 8.707031 -2.277344 L 6.667969 -3.136719 C 6.289062 -2.417969 5.769531 -2.136719 5.113281 -2.136719 Z M 4.8125 -8.207031 C 5.890625 -8.207031 6.171875 -7.347656 6.148438 -6.308594 L 3.375 -6.308594 C 3.433594 -7.46875 3.792969 -8.207031 4.8125 -8.207031 Z M 4.8125 -8.207031"/></g><clipPath id="a"><path d="M 1.878906 5.300781 L 27.042969 5.300781 L 27.042969 30.464844 L 1.878906 30.464844 Z M 1.878906 5.300781"/></clipPath></defs><g clip-path="url(#a)"><path fill="#FFF" d="M 14.460938 5.300781 C 7.519531 5.300781 1.890625 10.957031 1.890625 17.9375 C 1.890625 24.363281 6.667969 29.671875 12.851562 30.46875 C 13.429688 27.921875 13.699219 25.339844 13.664062 22.734375 C 13.527344 22.820312 13.386719 22.925781 13.25 23.0625 C 13.25 23.0625 13.34375 22.742188 13.65625 22.378906 C 13.621094 20.734375 13.460938 19.078125 13.179688 17.421875 C 11.636719 18.609375 12.058594 20.867188 12.058594 20.867188 C 11.792969 20.558594 11.5 19.804688 11.5 19.804688 C 10.96875 20.90625 11.871094 23.082031 11.871094 23.082031 C 10.667969 22.457031 9.808594 20.574219 9.808594 20.574219 C 9.683594 20.746094 9.660156 20.925781 9.660156 20.925781 C 8.925781 18.578125 10.828125 17.578125 10.828125 17.578125 C 10.320312 17.625 9.46875 18.101562 9.46875 18.101562 C 9.65625 17.863281 9.855469 17.664062 10.058594 17.492188 C 9.515625 17.851562 9.25 18.261719 9.25 18.261719 C 9.3125 17.800781 9.621094 17.460938 9.621094 17.460938 C 7.914062 17.519531 6.523438 19.15625 6.523438 19.15625 C 6.488281 17.792969 8.835938 16.128906 8.835938 16.128906 C 8.234375 15.882812 7.628906 16.226562 7.628906 16.226562 C 8.414062 15.46875 10.605469 15.648438 10.605469 15.648438 C 10.019531 15.261719 9.4375 15.246094 9.4375 15.246094 C 10.101562 15.101562 10.910156 15.289062 11.582031 15.527344 C 11.761719 15.539062 11.917969 15.5625 11.917969 15.5625 C 11.40625 15.3125 10.570312 15.035156 10.570312 15.035156 L 11.449219 14.796875 C 10.144531 14.191406 9 14.613281 9 14.613281 C 9.199219 14.386719 9.984375 14.179688 9.984375 14.179688 C 9.398438 13.925781 8.300781 14.011719 8.300781 14.011719 C 10.519531 12.144531 11.914062 13.601562 12.457031 14.417969 C 12.449219 14.152344 12.46875 13.964844 12.46875 13.964844 C 12.507812 14.125 12.640625 14.308594 12.722656 14.417969 C 12.710938 14.335938 12.691406 14.257812 12.671875 14.183594 C 12.660156 14.152344 12.652344 14.125 12.644531 14.09375 C 12.578125 13.898438 12.503906 13.765625 12.503906 13.765625 C 12.535156 13.800781 12.5625 13.835938 12.59375 13.871094 C 12.394531 12.769531 13.210938 12.285156 13.210938 12.285156 C 12.867188 12.707031 12.976562 12.90625 12.976562 12.90625 C 14.546875 10.976562 15.945312 11.328125 15.945312 11.328125 C 14.796875 11.8125 14.054688 12.914062 14.054688 12.914062 C 14.558594 12.394531 15.148438 12.496094 15.148438 12.496094 C 13.285156 13.632812 13.710938 14.359375 13.710938 14.359375 C 14.078125 13.746094 14.300781 13.765625 14.300781 13.765625 C 13.929688 14.3125 13.800781 14.90625 13.78125 15.410156 C 14.003906 14.683594 14.679688 14.113281 14.679688 14.113281 C 14.558594 14.324219 14.542969 14.734375 14.542969 14.734375 C 15.09375 13.113281 16.367188 13.40625 16.367188 13.40625 C 15.828125 13.472656 15.769531 13.695312 15.769531 13.695312 C 18.234375 13.386719 19.007812 14.609375 19.007812 14.609375 C 17.839844 14.164062 16.550781 14.449219 16.550781 14.449219 C 17.269531 14.417969 17.628906 14.898438 17.628906 14.898438 C 15.496094 14.4375 15.308594 15.257812 15.308594 15.257812 C 15.667969 15.15625 15.878906 15.15625 16 15.179688 C 16.6875 15.007812 17.222656 15.03125 17.222656 15.03125 C 16.699219 15.191406 16.683594 15.378906 16.683594 15.378906 C 18.925781 15.105469 19.347656 16.144531 19.347656 16.144531 C 18.707031 15.675781 18.539062 15.796875 18.539062 15.796875 C 20.882812 17.375 20.570312 19.476562 20.570312 19.476562 C 19.96875 17.824219 18.59375 17.59375 18.59375 17.59375 C 18.976562 17.90625 19.335938 18.957031 19.335938 18.957031 C 18.605469 17.753906 16.566406 16.71875 16.566406 16.71875 C 17.148438 17.046875 17.160156 17.648438 17.160156 17.648438 C 15.609375 16.25 14.359375 16.824219 14.050781 17.003906 C 14.398438 18.511719 14.691406 20.035156 14.90625 21.566406 C 15.082031 21.507812 15.277344 21.460938 15.492188 21.425781 C 15.492188 21.425781 15.425781 21.308594 14.910156 21.410156 C 14.910156 21.410156 15.457031 20.902344 16.722656 21.695312 C 16.722656 21.695312 16.765625 21.578125 16.496094 21.335938 C 16.496094 21.335938 16.824219 21.472656 17.1875 21.769531 C 17.265625 21.789062 17.390625 21.847656 17.582031 22.011719 C 17.582031 22.011719 17.695312 21.464844 16.289062 21.144531 C 16.289062 21.144531 16.636719 20.957031 17.0625 21.175781 C 17.0625 21.175781 16.367188 20.644531 15.542969 20.582031 C 15.542969 20.582031 16.347656 20.066406 17.738281 20.945312 C 17.738281 20.945312 17.765625 20.792969 17.460938 20.601562 C 17.460938 20.601562 18.308594 20.785156 18.1875 21.914062 C 18.1875 21.914062 18.292969 21.664062 18.277344 21.5 C 18.277344 21.5 18.515625 22.015625 18.460938 22.507812 C 18.464844 22.5 18.46875 22.492188 18.472656 22.484375 C 18.589844 22.183594 18.671875 21.808594 18.601562 21.398438 C 18.601562 21.398438 18.742188 21.449219 18.789062 21.921875 C 18.789062 21.921875 19.246094 21.605469 18.449219 20.398438 C 18.449219 20.398438 18.828125 20.503906 18.984375 20.957031 C 18.984375 20.957031 18.847656 20.089844 18.292969 19.476562 C 18.292969 19.476562 19.230469 19.65625 19.636719 21.257812 C 19.636719 21.257812 19.757812 21.167969 19.667969 20.816406 C 19.667969 20.816406 20.019531 21.339844 19.589844 21.949219 C 19.621094 21.933594 19.648438 21.917969 19.679688 21.90625 C 19.679688 21.90625 19.5 22.035156 19.367188 22.234375 C 19.449219 22.191406 19.578125 22.117188 19.644531 22.035156 C 19.644531 22.035156 19.605469 22.152344 19.523438 22.308594 C 20.078125 21.972656 21.320312 21.488281 22.132812 23.234375 C 22.132812 23.234375 21.496094 22.875 21.078125 22.859375 C 21.078125 22.859375 21.488281 23.207031 21.546875 23.398438 C 21.546875 23.398438 20.976562 22.820312 20.027344 22.820312 L 20.488281 23.210938 C 20.488281 23.210938 19.90625 23.140625 19.53125 23.148438 C 19.53125 23.148438 19.632812 23.175781 19.742188 23.222656 C 20.210938 23.265625 20.75 23.382812 21.109375 23.65625 C 21.109375 23.65625 20.753906 23.5 20.292969 23.566406 C 20.292969 23.566406 21.660156 24.078125 21.917969 24.75 C 21.917969 24.75 21.652344 24.375 21.222656 24.351562 C 21.222656 24.351562 22.167969 26.011719 21.769531 26.820312 C 21.769531 26.820312 21.386719 25.445312 20.378906 24.929688 C 20.378906 24.929688 20.46875 25.222656 20.382812 25.515625 C 20.382812 25.515625 20.335938 25.195312 20.109375 24.828125 C 20.183594 24.988281 20.25 25.164062 20.292969 25.359375 C 20.292969 25.359375 19.914062 24.832031 19.625 24.664062 C 19.625 24.664062 20.488281 25.796875 19.394531 27 C 19.394531 27 19.429688 26.886719 19.402344 26.746094 C 19.402344 26.746094 18.363281 27.636719 17.464844 27.671875 C 17.464844 27.671875 18.613281 26.621094 18.601562 25.808594 C 18.601562 25.808594 18.21875 26.179688 17.972656 26.289062 C 17.972656 26.289062 18.8125 25.109375 18.292969 23.984375 C 17.203125 25.992188 16.460938 28.160156 16.078125 30.464844 C 22.257812 29.667969 27.03125 24.363281 27.03125 17.9375 C 27.03125 10.957031 21.40625 5.300781 14.460938 5.300781"/></g><path fill="#FFF" d="M 17.859375 23.425781 C 17.746094 23.253906 17.160156 22.511719 15.808594 22.925781 C 15.808594 22.925781 15.980469 22.566406 16.421875 22.535156 C 16.421875 22.535156 15.734375 22.554688 15.050781 22.726562 C 15.277344 24.730469 15.351562 26.738281 15.222656 28.742188 C 15.878906 26.84375 16.8125 25.078125 17.859375 23.425781"/><g fill="#FFF"><use x="28.727" y="25.426" xmlns:xlink="http://www.w3.org/1999/xlink" xlink:href="#b" xlink:type="simple" xlink:actuate="onLoad" xlink:show="embed"/></g><g fill="#FFF"><use x="37.489" y="25.426" xmlns:xlink="http://www.w3.org/1999/xlink" xlink:href="#c" xlink:type="simple" xlink:actuate="onLoad" xlink:show="embed"/></g><g fill="#FFF"><use x="46.771" y="25.426" xmlns:xlink="http://www.w3.org/1999/xlink" xlink:href="#d" xlink:type="simple" xlink:actuate="onLoad" xlink:show="embed"/></g><g fill="#FFF"><use x="61.542" y="25.426" xmlns:xlink="http://www.w3.org/1999/xlink" xlink:href="#e" xlink:type="simple" xlink:actuate="onLoad" xlink:show="embed"/></g><g fill="#FFF"><use x="71.841" y="25.426" xmlns:xlink="http://www.w3.org/1999/xlink" xlink:href="#c" xlink:type="simple" xlink:actuate="onLoad" xlink:show="embed"/></g><g fill="#FFF"><use x="81.123" y="25.426" xmlns:xlink="http://www.w3.org/1999/xlink" xlink:href="#f" xlink:type="simple" xlink:actuate="onLoad" xlink:show="embed"/></g><g fill="#FFF"><use x="84.935" y="25.426" xmlns:xlink="http://www.w3.org/1999/xlink" xlink:href="#g" xlink:type="simple" xlink:actuate="onLoad" xlink:show="embed"/></g><g fill="#FFF"><use x="99.965" y="25.426" xmlns:xlink="http://www.w3.org/1999/xlink" xlink:href="#c" xlink:type="simple" xlink:actuate="onLoad" xlink:show="embed"/></g><g fill="#FFF"><use x="109.247" y="25.426" xmlns:xlink="http://www.w3.org/1999/xlink" xlink:href="#h" xlink:type="simple" xlink:actuate="onLoad" xlink:show="embed"/></g><g fill="#FFF"><use x="119.547" y="25.426" xmlns:xlink="http://www.w3.org/1999/xlink" xlink:href="#i" xlink:type="simple" xlink:actuate="onLoad" xlink:show="embed"/></g></svg>